<?xml version="1.0" encoding="UTF-8" standalone="no"?>
<svg
   xmlns:dc="http://purl.org/dc/elements/1.1/"
   xmlns:cc="http://creativecommons.org/ns#"
   xmlns:rdf="http://www.w3.org/1999/02/22-rdf-syntax-ns#"
   xmlns:svg="http://www.w3.org/2000/svg"
   xmlns="http://www.w3.org/2000/svg"
   width="218.28799mm"
   height="118.71764mm"
   viewBox="0 0 218.28799 118.71764"
   version="1.1"
   id="svg8">
  <defs
     id="defs2" />
  <metadata
     id="metadata5">
    <rdf:RDF>
      <cc:Work
         rdf:about="">
        <dc:format>image/svg+xml</dc:format>
        <dc:type
           rdf:resource="http://purl.org/dc/dcmitype/StillImage" />
        <dc:title></dc:title>
      </cc:Work>
    </rdf:RDF>
  </metadata>
  <g
     id="layer1"
     transform="translate(-173.51373,-147.03978)">
    <path
       style="fill:#000000;stroke-width:0.176389"
       d="m 203.30079,265.67205 c -2.27983,-0.0595 -4.63787,-0.16945 -5.24009,-0.2443 -1.00322,-0.1247 -1.13345,-0.19165 -1.55453,-0.79927 -0.43024,-0.62083 -0.59678,-1.65662 -0.4251,-2.64373 0.0256,-0.14725 -0.008,-0.48634 -0.0754,-0.75353 -0.12741,-0.50764 -0.10132,-0.53152 0.79333,-0.72637 0.58901,-0.12827 0.70658,-0.43767 0.47923,-1.26107 -0.38042,-1.37778 -2.335,-2.72486 -5.88373,-4.05501 -0.48507,-0.18182 -1.73583,-0.86779 -2.77947,-1.52439 -1.04364,-0.65659 -2.1152,-1.30786 -2.38125,-1.44725 -0.26605,-0.1394 -0.64248,-0.3991 -0.8365,-0.5771 -0.19403,-0.17801 -0.64133,-0.52209 -0.99401,-0.76463 -1.49568,-1.02858 -2.57894,-1.93856 -3.0688,-2.57792 -1.02918,-1.34328 -1.31055,-1.74924 -1.48578,-2.14364 -0.0977,-0.22002 -0.36101,-0.46972 -0.58501,-0.55489 -0.56656,-0.2154 -0.70038,-0.41732 -1.4682,-2.21523 -0.75385,-1.76524 -0.8828,-3.02942 -0.38733,-3.7972 0.29404,-0.45563 0.2934,-1.20795 -0.002,-2.55764 -0.21619,-0.98725 -1.45082,-4.51175 -1.73212,-4.94472 -0.28339,-0.43616 -0.52514,-2.13679 -0.68871,-4.84487 -0.0674,-1.11566 -0.22857,-2.34597 -0.35818,-2.73402 -0.62088,-1.85889 -0.79059,-4.35332 -0.61204,-8.99584 0.007,-0.19403 -0.0368,-0.83874 -0.0984,-1.4327 -0.0743,-0.7165 -0.0458,-1.12078 0.0845,-1.20133 0.12313,-0.0761 0.13944,-0.23261 0.0437,-0.41938 -0.16016,-0.31247 -0.34478,-2.27165 -0.49248,-5.22617 -0.0797,-1.59346 -0.0559,-1.77828 0.26027,-2.02848 0.53721,-0.42504 1.04847,-3.15926 1.18507,-6.33771 0.12335,-2.87024 0.34599,-3.79596 0.9598,-3.99078 0.19568,-0.0621 0.35868,-0.20678 0.36222,-0.32152 0.008,-0.25203 1.16757,-0.99354 2.37481,-1.51832 0.92126,-0.40047 2.20486,-1.50721 2.20486,-1.90107 0,-0.12583 0.0791,-0.22879 0.17588,-0.22879 0.31887,0 1.58801,-1.26932 1.58801,-1.58823 0,-0.17185 0.25972,-0.6984 0.57715,-1.1701 0.31743,-0.4717 0.76304,-1.2942 0.99024,-1.82778 0.22721,-0.53358 0.47116,-1.0892 0.54213,-1.23472 0.071,-0.14552 0.23219,-0.70115 0.35828,-1.23472 0.12609,-0.53358 0.27726,-1.00983 0.33593,-1.05834 0.0587,-0.0485 0.29081,-0.44538 0.51585,-0.88194 0.68799,-1.33467 1.06203,-1.98272 1.25678,-2.17747 0.10238,-0.10238 0.18614,-0.32879 0.18614,-0.50313 0,-0.17435 0.26699,-0.61488 0.59332,-0.97896 0.32633,-0.36408 0.72059,-0.91094 0.87613,-1.21523 0.15555,-0.30429 0.66246,-0.95838 1.12647,-1.45352 0.77165,-0.82342 1.12648,-1.06777 2.81607,-1.93925 0.30871,-0.15923 0.80569,-0.6269 1.10441,-1.03927 0.41478,-0.57259 0.72707,-0.79895 1.32162,-0.95797 0.51918,-0.13886 0.84043,-0.34411 0.96438,-0.61616 0.10223,-0.22436 0.30189,-0.40793 0.44369,-0.40793 0.1418,0 0.71678,-0.23813 1.27773,-0.52917 0.56096,-0.29104 1.16102,-0.52916 1.33347,-0.52916 0.17245,0 0.31354,-0.0666 0.31354,-0.14808 0,-0.2617 0.88893,-0.56362 2.00197,-0.67995 1.25773,-0.13146 2.11243,-0.76624 1.93667,-1.43835 -0.18518,-0.70816 0.0813,-1.22182 0.74794,-1.44184 0.34638,-0.11432 0.67527,-0.33877 0.73087,-0.49877 0.16333,-0.4701 1.33139,-1.61385 1.64815,-1.61385 0.16017,0 0.5038,-0.19701 0.76361,-0.43779 0.25982,-0.24079 0.6165,-0.51492 0.79263,-0.60918 0.17613,-0.0943 0.5903,-0.52709 0.92038,-0.96184 0.33008,-0.43475 0.77241,-0.83523 0.98297,-0.88996 0.44556,-0.11581 2.76545,-1.63724 2.84835,-1.868 0.0931,-0.25924 1.74142,-1.38255 3.90176,-2.65903 1.12161,-0.66273 2.54721,-1.50538 3.16801,-1.87256 0.6208,-0.36719 1.3118,-0.85399 1.53557,-1.08179 0.22377,-0.2278 0.5096,-0.37853 0.63517,-0.33494 0.12557,0.0436 0.45269,-0.10737 0.72692,-0.33547 0.27423,-0.22809 0.60763,-0.41471 0.74089,-0.41471 0.13325,0 0.31518,-0.13027 0.40428,-0.28949 0.16974,-0.30329 1.5252,-1.15305 2.38904,-1.49772 0.27777,-0.11082 0.99214,-0.47102 1.5875,-0.80043 0.59535,-0.32941 1.79684,-0.9469 2.66996,-1.37219 l 1.5875,-0.77325 7.32014,-0.10786 c 16.63823,-0.24517 22.28195,-0.29001 35.89514,-0.28519 7.85813,0.003 14.64469,0.0519 15.08125,0.10924 0.43657,0.0573 1.15094,0.21045 1.5875,0.34031 0.43657,0.12986 1.02539,0.30256 1.30851,0.38377 0.69871,0.20044 0.76344,0.53169 0.13103,0.67059 -0.40754,0.0895 -0.49987,0.18887 -0.42863,0.46129 0.24889,0.95177 2.51225,1.71365 6.7502,2.27221 1.60073,0.21098 3.29136,0.45756 3.75695,0.54796 0.46559,0.0904 1.2769,0.16437 1.80291,0.16437 0.62908,0 1.45612,0.18402 2.41666,0.53772 0.80316,0.29575 1.84929,0.61346 2.32474,0.70603 0.47544,0.0926 0.98374,0.26732 1.12954,0.38832 0.1458,0.12101 0.47117,0.22717 0.72305,0.23593 0.46219,0.0161 1.27067,0.20664 3.36838,0.79396 0.63059,0.17655 1.75209,0.4423 2.49223,0.59055 0.74014,0.14824 1.71906,0.42957 2.17539,0.62518 0.45632,0.1956 0.96597,0.35564 1.13256,0.35564 0.16658,0 0.37828,0.0647 0.47044,0.14369 0.0922,0.079 0.84226,0.32466 1.66688,0.54586 0.82462,0.22119 2.31887,0.67677 3.32056,1.0124 2.49266,0.83519 4.72613,1.47305 5.15792,1.47305 0.1976,0 0.6528,0.15491 1.01157,0.34425 1.41828,0.74849 2.59159,1.24325 2.94834,1.24325 0.67182,0 3.56557,0.67761 5.15057,1.20607 0.85208,0.2841 1.90258,0.57519 2.33445,0.64689 1.22031,0.20257 2.21638,0.70492 2.76763,1.3958 0.28416,0.35615 0.66218,0.63179 0.86644,0.63179 0.19928,0 0.7549,0.25098 1.23472,0.55772 0.47981,0.30675 1.30894,0.78777 1.84252,1.06895 0.53358,0.28118 1.14626,0.69876 1.36151,0.92796 0.21525,0.22919 0.55259,0.46789 0.74965,0.53043 0.19707,0.0626 0.35829,0.175 0.35829,0.24991 0,0.18172 0.81579,0.54559 1.22322,0.54559 0.17857,0 0.72855,0.27781 1.22218,0.61736 0.49361,0.33955 0.94747,0.61736 1.00855,0.61736 0.0611,0 0.34694,0.19846 0.63522,0.44103 0.28827,0.24256 0.7363,0.49163 0.99561,0.55349 0.25931,0.0618 0.55716,0.17938 0.66188,0.26117 0.10472,0.0818 0.81909,0.35759 1.5875,0.6129 0.7684,0.2553 1.67259,0.67354 2.00931,0.9294 0.33673,0.25586 0.77329,0.50785 0.97014,0.55996 0.19685,0.0521 0.51515,0.38545 0.70732,0.74075 0.19218,0.3553 0.51169,0.68673 0.71004,0.73651 0.19835,0.0498 0.55705,0.42242 0.79712,0.82807 0.24006,0.40565 0.61473,0.9278 0.83257,1.16033 0.21784,0.23253 0.51144,0.64587 0.65245,0.91853 0.14098,0.27267 0.4454,0.61962 0.67645,0.77101 0.23105,0.15139 0.56377,0.65927 0.73937,1.12863 0.17559,0.46935 0.37918,0.93274 0.4524,1.02975 0.32126,0.42555 1.01111,1.80318 1.11056,2.21776 0.0599,0.24962 0.32036,0.76548 0.57882,1.14634 0.25845,0.38086 0.55176,0.92727 0.65181,1.21424 0.10003,0.28698 0.41002,0.88876 0.68885,1.33731 0.3183,0.51202 0.52407,1.10601 0.55295,1.59605 0.0253,0.42928 0.18053,1.05025 0.345,1.37991 0.16446,0.32967 0.29901,0.67218 0.29901,0.76114 0,0.089 0.30162,0.53317 0.6703,0.98713 1.00668,1.23966 1.2295,1.86975 1.13384,3.20665 -0.0451,0.63059 -0.15206,1.23412 -0.23768,1.34118 -0.0856,0.10707 -0.14138,0.38488 -0.1239,0.61737 0.0456,0.6074 -0.36424,2.78452 -0.66073,3.5095 -0.4112,1.00547 -0.934,4.03666 -1.05238,6.10151 -0.15444,2.6946 -0.49244,3.37441 -1.93431,3.89049 -0.8901,0.31859 -1.31069,0.36396 -2.64583,0.28544 -1.33978,-0.0788 -1.78705,-0.18958 -2.86632,-0.70991 -0.70336,-0.33909 -1.27882,-0.67754 -1.27882,-0.75211 0,-0.21633 -1.62403,-1.19386 -2.20487,-1.32715 -0.29104,-0.0668 -0.84666,-0.26601 -1.23472,-0.44272 -0.38805,-0.17671 -1.34055,-0.45438 -2.11666,-0.61704 -1.29209,-0.2708 -1.47361,-0.36357 -2.15205,-1.09982 -0.64305,-0.69786 -0.78986,-1.01556 -1.11124,-2.40493 -0.20367,-0.88046 -0.44762,-2.23584 -0.54211,-3.01195 -0.19145,-1.5726 -0.72411,-4.51332 -1.23007,-6.79097 -0.18318,-0.82462 -0.38498,-1.8565 -0.44845,-2.29306 -0.0635,-0.43656 -0.26389,-1.42875 -0.4454,-2.20486 -0.1815,-0.77611 -0.33057,-1.63698 -0.33126,-1.91305 0,-0.27606 -0.15845,-0.72274 -0.35062,-0.9926 -0.19216,-0.26987 -0.46634,-0.91712 -0.60928,-1.43834 -0.40243,-1.4673 -0.68321,-2.14953 -1.10501,-2.68499 -0.37274,-0.47318 -0.93493,-2.06993 -0.93493,-2.65546 0,-0.15484 -0.0934,-0.28153 -0.20765,-0.28153 -0.11419,0 -0.41185,-0.24349 -0.66145,-0.54109 -0.51753,-0.61705 -1.74795,-0.90712 -2.21249,-0.52158 -0.21498,0.17842 -0.36196,0.13453 -0.80897,-0.24159 -0.30042,-0.2528 -0.60893,-0.45963 -0.68557,-0.45963 -0.0766,0 -0.30398,-0.39618 -0.50522,-0.8804 -0.25361,-0.61027 -0.44327,-0.85071 -0.61811,-0.78362 -0.13873,0.0532 -0.29968,-0.0268 -0.35766,-0.17793 -0.12649,-0.32961 -0.70896,-0.34834 -2.07284,-0.0666 -0.89859,0.1856 -1.06173,0.17275 -1.50992,-0.11887 -0.78889,-0.51331 -2.86107,-2.18731 -4.11846,-3.32709 -0.63059,-0.57161 -1.43032,-1.22011 -1.77718,-1.44112 -0.34687,-0.221 -0.86756,-0.63872 -1.1571,-0.92826 -0.98339,-0.98339 -2.42767,-1.58512 -4.93703,-2.0569 -1.31523,-0.24727 -2.0762,-0.62643 -2.37399,-1.18284 -0.0972,-0.18171 -0.48305,-0.5237 -0.85733,-0.75998 -0.61339,-0.38721 -0.80843,-0.41943 -1.9768,-0.32656 -0.71294,0.0567 -1.51125,0.22663 -1.77403,0.37769 -0.37486,0.21551 -0.56481,0.23207 -0.88194,0.0769 -0.23065,-0.11285 -1.27507,-0.19434 -2.43265,-0.1898 -1.40117,0.005 -2.5916,-0.10742 -3.84943,-0.36513 -1.00152,-0.20519 -2.19215,-0.37394 -2.64583,-0.37499 -0.45368,-0.001 -1.18207,-0.1102 -1.61863,-0.24255 -0.43656,-0.13236 -1.38906,-0.29621 -2.11667,-0.36412 -3.08115,-0.28759 -9.34402,-1.19903 -9.68437,-1.40938 -0.3154,-0.19492 -3.80881,-0.62104 -5.74966,-0.70132 -1.16416,-0.0482 -2.6539,-0.14169 -3.31052,-0.20785 -0.98538,-0.0993 -1.25099,-0.0686 -1.52099,0.17574 -0.30805,0.27879 -0.33265,0.27493 -0.42184,-0.0661 -0.13267,-0.50732 -1.19004,-0.90055 -2.66948,-0.99276 -0.68882,-0.0429 -1.6486,-0.14799 -2.13284,-0.23346 -4.19827,-0.741 -6.0614,-1.10082 -6.43669,-1.24307 -0.24253,-0.0919 -0.87753,-0.2497 -1.41111,-0.35057 -0.53358,-0.10088 -1.60514,-0.30574 -2.38125,-0.45526 -0.77611,-0.14951 -2.12549,-0.30726 -2.99861,-0.35054 -0.87313,-0.0433 -2.14313,-0.11839 -2.82222,-0.16692 -2.03026,-0.14509 -3.5682,-0.12019 -12.25903,0.19852 -1.96602,0.0721 -3.40294,0.0206 -5.11528,-0.18344 -2.63001,-0.31335 -10.46722,-0.37792 -12.17083,-0.10028 -0.53358,0.087 -2.00202,0.24951 -3.2632,0.36124 -1.26118,0.11172 -2.38686,0.27813 -2.50152,0.3698 -0.13897,0.11111 -0.20997,0.87015 -0.21297,2.27681 -0.004,1.68202 -0.0609,2.16657 -0.28269,2.38831 -0.17258,0.17258 -0.21915,0.3548 -0.12267,0.47999 0.0855,0.11099 0.17517,0.91617 0.1992,1.7893 0.024,0.87312 0.056,1.82454 0.0711,2.11425 0.0233,0.44815 -0.0582,0.55477 -0.54602,0.71451 -0.78415,0.25676 -1.0607,0.54659 -0.7848,0.82249 0.30919,0.30919 0.25884,1.11929 -0.11609,1.86793 -0.75933,1.5162 -0.59253,2.26466 0.61734,2.77017 0.66544,0.27804 2.02859,0.33457 2.60647,0.10808 0.22015,-0.0863 0.77493,0.0459 1.5875,0.37813 1.38575,0.56665 2.66019,0.72587 2.66019,0.33234 0,-0.1324 -0.59013,-0.65031 -1.3114,-1.15091 -0.91346,-0.63401 -1.35132,-1.05949 -1.44296,-1.40217 -0.0724,-0.27058 -0.20279,-0.5861 -0.28983,-0.70117 -0.2139,-0.28276 -0.64409,-1.55096 -0.9984,-2.94324 -0.21901,-0.86063 -0.27917,-1.7623 -0.24125,-3.61597 l 0.0505,-2.46944 0.97014,-0.11998 c 1.23999,-0.15334 5.10709,-0.42932 9.65501,-0.68904 2.75302,-0.15721 3.90302,-0.15537 5.02709,0.008 1.61731,0.2351 4.26303,1.11272 4.80887,1.59517 0.19403,0.17149 0.53137,0.36597 0.74965,0.43216 0.21829,0.0662 0.39688,0.19057 0.39688,0.27639 0,0.0858 0.33734,0.39082 0.74965,0.67779 1.25836,0.87582 4.00168,3.7454 4.49191,4.69865 0.14968,0.29104 0.52928,0.88636 0.84356,1.32292 0.31428,0.43656 0.67921,1.09712 0.81095,1.46791 0.21491,0.60485 0.20547,0.73181 -0.0918,1.23473 -0.28201,0.47713 -1.12412,2.13189 -1.72149,3.38278 -0.0927,0.19402 -0.40042,0.74965 -0.68391,1.23472 -0.62356,1.06698 -1.07694,2.02337 -1.12882,2.38125 -0.0211,0.14552 -0.19299,0.34396 -0.38198,0.44097 -0.58368,0.29961 -2.07134,1.64573 -2.53531,2.2941 -0.2528,0.35327 -0.84082,0.80884 -1.37796,1.06759 -1.217,0.58625 -2.30075,1.57403 -2.698,2.45907 -0.29037,0.64692 -0.29366,0.74209 -0.0397,1.14653 0.15233,0.24257 0.40177,0.54026 0.55432,0.66153 0.63157,0.50204 3.2585,0.12507 5.19512,-0.74551 1.3021,-0.58534 4.19229,-0.72442 7.27386,-0.35002 1.26118,0.15322 2.88836,0.31594 3.61597,0.3616 1.52662,0.0958 2.90718,0.45441 4.04941,1.05189 1.0644,0.55677 1.43657,0.88962 2.10253,1.88036 0.30733,0.45722 0.68643,0.90274 0.84244,0.99005 0.15601,0.0873 0.57094,0.70053 0.92207,1.36271 0.50079,0.94443 0.84665,1.3459 1.60442,1.86238 1.40112,0.95498 2.38069,1.21042 5.73677,1.49597 1.64923,0.14033 3.79236,0.37321 4.7625,0.51751 0.97014,0.14431 2.9942,0.34215 4.49792,0.43964 1.50371,0.0975 3.49756,0.29545 4.43077,0.43989 0.9332,0.14445 1.96975,0.26263 2.30344,0.26263 0.33368,0 0.76077,0.11654 0.94909,0.25897 0.18831,0.14244 0.59526,0.2615 0.90432,0.26459 0.43473,0.004 0.77867,0.21522 1.51948,0.93165 1.15284,1.11489 1.65578,1.489 3.00817,2.2376 0.56795,0.31438 1.52045,0.96657 2.11666,1.44931 0.59622,0.48273 1.4261,1.0909 1.84418,1.35147 0.41808,0.26057 1.44996,1.00659 2.29306,1.65782 0.8431,0.65123 1.73135,1.28392 1.97388,1.40597 0.24254,0.12206 0.76239,0.50205 1.15524,0.84442 0.39284,0.34238 1.26187,1.09875 1.93117,1.68084 1.20457,1.0476 4.73806,4.40078 6.58454,6.24854 0.52592,0.52628 1.22167,1.37185 1.54613,1.87906 0.32446,0.50721 0.90831,1.29006 1.29745,1.73968 0.38914,0.44961 0.92357,1.19153 1.18762,1.64871 0.26404,0.45718 0.92079,1.50592 1.45944,2.33053 0.53864,0.82462 1.0855,1.73743 1.21522,2.02848 0.12973,0.29104 0.58583,1.05578 1.01356,1.69941 0.42773,0.64364 0.77769,1.24402 0.77769,1.33419 0,0.0902 0.3417,0.6748 0.75933,1.29919 0.65773,0.98336 1.19875,1.96854 2.367,4.31026 1.43595,2.87831 1.73529,3.24274 3.30953,4.02916 1.24098,0.61994 1.56609,0.69873 3.81,0.92339 3.5018,0.3506 3.91492,0.48201 5.13151,1.63226 0.56474,0.53394 1.0268,1.11275 1.0268,1.28626 0,0.2885 1.85806,1.5361 2.76692,1.85784 0.17593,0.0623 0.47958,0.25625 0.67478,0.43104 0.78676,0.70454 4.1975,1.13023 5.6298,0.70265 1.45508,-0.43439 3.66332,-0.89663 4.28339,-0.89663 1.23328,0 2.3268,0.50347 3.29902,1.51891 0.49324,0.51514 1.29366,1.14946 1.77873,1.4096 1.9127,1.02576 3.57249,1.7981 4.49791,2.09298 1.93776,0.61745 4.57639,1.73098 4.86966,2.05503 0.16517,0.1825 0.50627,0.3337 0.75803,0.33601 0.25174,0.002 0.93398,0.20037 1.51606,0.44015 0.58209,0.23978 1.34777,0.43634 1.70152,0.43679 0.35375,5.2e-4 1.22687,0.23839 1.94028,0.52876 l 1.29709,0.52795 0.27707,-0.36711 c 0.23763,-0.31485 0.39127,-0.34998 1.0792,-0.24682 1.76627,0.26487 2.54432,-0.7714 2.71223,-3.61231 0.1067,-1.80534 0.16707,-1.94531 0.83818,-1.94303 0.74475,0.003 2.13034,0.43252 2.8732,0.89163 0.5569,0.34419 0.59859,0.43413 0.59859,1.29118 0,0.70097 0.11702,1.1087 0.48945,1.7054 0.62858,1.00708 0.63329,2.26464 0.0169,4.49712 -0.49793,1.80335 -1.12908,2.83915 -2.36086,3.87448 -0.45991,0.38658 -1.80188,1.67521 -2.98213,2.86363 -1.71002,1.72186 -2.24468,2.16077 -2.63213,2.16077 -0.26743,0 -0.70224,0.11171 -0.96628,0.24825 -0.29799,0.15409 -1.38178,0.29393 -2.85757,0.36869 -2.02219,0.10245 -2.4817,0.0759 -3.07485,-0.17742 -0.51147,-0.21847 -1.16965,-0.29349 -2.46944,-0.28148 -1.82275,0.0169 -2.91862,-0.28935 -2.91862,-0.81552 0,-0.12346 -0.15406,-0.22447 -0.34237,-0.22447 -0.1883,0 -0.38767,-0.0733 -0.44304,-0.1629 -0.31841,-0.5152 -4.50626,-1.1737 -4.50626,-0.70857 0,0.27411 -0.82133,0.1869 -1.0708,-0.11369 -0.15401,-0.18558 -0.41337,-0.25174 -0.77124,-0.19673 -0.29657,0.0456 -0.79068,-0.0203 -1.09802,-0.14634 -0.30736,-0.12606 -1.25986,-0.40397 -2.11667,-0.61757 -0.85683,-0.2136 -1.79372,-0.50931 -2.08202,-0.65714 -0.69586,-0.35682 -3.73261,-0.38438 -6.54396,-0.0594 -1.99456,0.23057 -2.18361,0.22537 -2.98884,-0.0821 -0.5699,-0.21765 -1.16013,-0.65218 -1.75131,-1.28933 -2.07401,-2.23527 -2.58747,-2.6748 -3.75349,-3.21307 -0.94431,-0.43591 -1.45434,-0.55704 -2.4299,-0.57708 l -1.23472,-0.0254 -4.13046,2.07256 c -3.78842,1.90095 -4.212,2.07276 -5.11527,2.07484 -0.96457,0.002 -2.57668,-0.28543 -4.68899,-0.83664 -1.48034,-0.38629 -4.11124,-1.99996 -5.54789,-3.40282 -1.32692,-1.2957 -1.80353,-2.04329 -1.65784,-2.6004 0.0602,-0.23012 -0.14327,-0.79223 -0.54986,-1.5193 -0.51033,-0.91254 -0.67576,-1.44158 -0.79057,-2.52809 -0.0799,-0.75572 -0.23703,-1.60668 -0.34929,-1.891 -0.11225,-0.28433 -0.22045,-1.04196 -0.24044,-1.68363 -0.0371,-1.19215 -0.38922,-2.03052 -0.9418,-2.24257 -0.44157,-0.16944 -1.64176,0.28499 -2.22518,0.84255 -0.30071,0.28737 -0.71152,0.55819 -0.91291,0.60181 -0.20139,0.0436 -1.44493,0.27972 -2.76342,0.52466 -1.31849,0.24493 -2.8663,0.61062 -3.43958,0.81264 -1.42574,0.50243 -3.16178,0.38908 -5.23192,-0.34159 -0.84579,-0.29853 -1.77317,-0.66449 -2.06084,-0.81325 -0.28766,-0.14876 -0.78494,-0.27299 -1.10505,-0.27608 -0.32011,-0.003 -0.70558,-0.1023 -0.85659,-0.22048 -0.46597,-0.36467 -1.7933,-6.07965 -2.28262,-9.82808 -0.10765,-0.82461 -0.30845,-1.8168 -0.44622,-2.20486 -0.13778,-0.38805 -0.41465,-1.77711 -0.61527,-3.0868 -0.59952,-3.91378 -0.67125,-4.25326 -1.25967,-5.96156 -0.84162,-2.44343 -0.83291,-2.43747 -3.78065,-2.58692 -2.60487,-0.13207 -4.24661,0.0939 -5.47853,0.75419 -0.30557,0.16377 -0.84135,0.44571 -1.19062,0.62654 -0.34928,0.18083 -0.63505,0.39891 -0.63505,0.48462 0,0.2555 -2.25346,2.41896 -2.86955,2.75495 -0.42442,0.23145 -0.97557,0.31103 -2.15753,0.31154 -1.464,7e-4 -1.67143,-0.0449 -2.66637,-0.58462 -0.66345,-0.35991 -1.85203,-1.33263 -3.08681,-2.5262 -1.10442,-1.06752 -2.20643,-2.0638 -2.44896,-2.21397 -0.24254,-0.15017 -0.87754,-0.78608 -1.41111,-1.41315 -1.14466,-1.34521 -2.84918,-3.05099 -3.04875,-3.05099 -0.0773,0 -0.37132,-0.17063 -0.6534,-0.37917 -0.41843,-0.30936 -0.83384,-0.39464 -2.25613,-0.46312 -1.26006,-0.0607 -1.86152,-0.0185 -2.16992,0.15206 -0.23466,0.12981 -0.49087,0.21759 -0.56935,0.19508 -0.22523,-0.0646 -1.65668,0.45818 -2.4448,0.8929 -0.39485,0.2178 -1.04235,0.57106 -1.43888,0.78501 -0.56009,0.3022 -0.72266,0.49369 -0.72855,0.85817 -0.006,0.38788 -0.14162,0.52173 -0.78115,0.77251 -0.44133,0.17307 -0.87196,0.49112 -1.00265,0.74056 -0.29771,0.5682 -2.3433,2.07983 -3.69184,2.72816 -1.02164,0.49118 -1.15006,0.50882 -3.70417,0.50882 -2.90633,0 -4.02549,-0.24262 -5.03412,-1.09133 -0.28889,-0.24308 -0.82741,-0.4825 -1.19672,-0.53203 -0.59576,-0.0799 -0.76777,-0.007 -1.5255,0.64909 -0.46971,0.40653 -1.37197,0.97638 -2.00503,1.26632 -1.11488,0.51063 -1.18736,0.5207 -2.3094,0.32092 -0.63711,-0.11344 -1.66043,-0.331 -2.27403,-0.48347 -1.06186,-0.26385 -1.15964,-0.33474 -2.02847,-1.47073 -1.50401,-1.96647 -2.41214,-3.3187 -2.41214,-3.59173 0,-0.1416 -0.16289,-0.67071 -0.36198,-1.1758 -0.23043,-0.5846 -0.39965,-1.5368 -0.46565,-2.62014 -0.10318,-1.69347 -0.10134,-1.70365 0.37439,-2.07786 0.26293,-0.20682 0.84951,-0.43132 1.3035,-0.49889 0.99965,-0.14877 2.5922,-0.68052 3.168,-1.0578 0.39146,-0.25649 0.40102,-0.29821 0.13558,-0.59152 -0.42,-0.46409 -2.91686,-1.03553 -5.03579,-1.1525 -3.27616,-0.18084 -4.48627,-0.26998 -5.02708,-0.37028 -2.20082,-0.40817 -4.33329,-0.62407 -7.10395,-0.71922 -4.33557,-0.1489 -4.9565,0.0168 -8.29987,2.21465 -0.66057,0.43425 -0.91215,0.71157 -0.91215,1.00547 0,0.22321 -0.11776,0.47174 -0.26168,0.55229 -0.28331,0.15854 -2.03138,2.76614 -2.03138,3.0302 0,0.0885 -0.21828,0.34724 -0.48507,0.57498 -0.26679,0.22774 -0.71604,0.77058 -0.99835,1.20631 -0.28231,0.43573 -0.84706,1.18911 -1.25502,1.67418 -0.40796,0.48507 -1.0501,1.28443 -1.427,1.77636 -0.37689,0.49193 -1.02633,1.32537 -1.44321,1.85208 -0.41687,0.52672 -0.9725,1.23235 -1.23472,1.56808 -0.26222,0.33573 -0.66697,0.77229 -0.89944,0.97014 -0.23246,0.19785 -0.71827,0.63754 -1.07956,0.97709 -0.36129,0.33955 -0.90443,0.75207 -1.20697,0.91671 -0.3445,0.18748 -0.51406,0.39322 -0.4537,0.55052 0.207,0.53943 -0.63074,0.95034 -1.74141,0.85416 -0.44527,-0.0386 -1.3937,0.48042 -1.31414,0.7191 0.0362,0.10867 0.39848,0.31885 0.80501,0.46708 0.40652,0.14822 0.73852,0.31262 0.73776,0.36534 -0.002,0.15255 -0.91851,0.53681 -1.28011,0.53681 -0.41931,0 -1.01157,0.31345 -1.01157,0.53537 0,0.0936 0.11745,0.17018 0.261,0.17018 0.14355,0 0.42132,0.29766 0.61728,0.66146 0.19595,0.3638 0.60342,0.95307 0.90549,1.30948 0.30207,0.3564 0.56513,0.87234 0.58459,1.14652 0.0456,0.64323 0.52411,1.73717 1.07668,2.46163 0.23953,0.31404 0.43552,0.64303 0.43552,0.73108 0,0.088 0.29765,0.48935 0.66145,0.89179 1.72697,1.91038 2.04456,2.35177 2.87726,3.99874 0.49049,0.97014 1.08556,1.96667 1.32238,2.21451 0.23681,0.24784 0.43057,0.50428 0.43057,0.56985 0,0.25307 1.49419,3.24805 2.08367,4.17654 0.64837,1.02125 1.9479,2.76746 2.54396,3.4184 0.19159,0.20923 0.75978,0.93605 1.26265,1.61514 0.69873,0.9436 1.16224,1.36872 1.96584,1.80303 1.15006,0.62156 1.85855,0.72271 2.19792,0.3138 0.27084,-0.32635 0.0393,-0.99152 -0.79844,-2.29322 -0.31216,-0.48507 -0.81516,-1.35819 -1.11778,-1.94027 -0.30262,-0.58209 -0.74216,-1.37584 -0.97675,-1.76389 -0.84743,-1.40179 -1.71446,-3.12416 -1.62015,-3.21846 0.053,-0.053 0.42295,0.13354 0.82212,0.41452 1.98129,1.39469 2.61935,1.42584 3.18137,0.15531 0.2714,-0.61355 0.32086,-0.98496 0.22812,-1.71321 -0.15421,-1.21094 -0.34134,-1.55103 -0.82544,-1.50019 -0.35214,0.037 -0.40286,-0.058 -0.4963,-0.92894 -0.0572,-0.53358 -0.0688,-1.00983 -0.0256,-1.05834 0.0431,-0.0485 0.28841,0.18801 0.54504,0.52559 0.25662,0.33758 0.64518,0.78325 0.86346,0.99037 0.21828,0.20712 0.39688,0.4639 0.39688,0.57063 0,0.10673 0.17859,0.28907 0.39687,0.40519 0.21828,0.11612 0.59532,0.3881 0.83785,0.60441 1.71456,1.52913 1.91598,1.66631 2.44673,1.66631 0.53962,0 0.55188,-0.0183 0.55188,-0.82532 0,-1.28617 0.54367,-2.79536 1.05518,-2.92913 0.4685,-0.12251 1.43008,0.35055 2.1626,1.06393 0.57754,0.56244 0.71886,0.62201 1.1294,0.47608 0.52251,-0.18573 0.87212,-0.97818 1.08527,-2.45986 0.11125,-0.77336 0.1821,-0.8884 0.57545,-0.93439 0.35061,-0.041 0.73162,0.21905 1.74452,1.19063 0.71276,0.68368 1.40318,1.24306 1.53426,1.24306 0.34589,0 0.29202,-0.42589 -0.0986,-0.77939 -0.58813,-0.53225 -0.60844,-1.10134 -0.0647,-1.81375 0.46712,-0.61204 0.48912,-0.72827 0.47471,-2.508 -0.008,-1.02642 -0.038,-2.22341 -0.0659,-2.65997 -0.0555,-0.86653 0.17117,-2.14463 0.58338,-3.29007 0.26418,-0.7341 0.82054,-3.44608 0.82054,-3.99972 0,-0.51447 -0.42084,-0.30771 -1.05833,0.51996 -0.33955,0.44085 -0.83437,1.053 -1.09961,1.36034 -0.26524,0.30734 -0.48352,0.63192 -0.48507,0.7213 -0.002,0.0894 -0.12848,0.30135 -0.28207,0.47106 -0.15358,0.16971 -0.42122,0.57283 -0.59475,0.89583 -0.26179,0.48728 -0.41697,0.58727 -0.91138,0.58727 -0.53961,0 -0.60097,0.0526 -0.6499,0.55664 -0.0387,0.39872 -0.16381,0.58593 -0.44098,0.6599 -0.74938,0.19999 -0.88576,0.37131 -0.62631,0.78675 0.20907,0.33478 0.18723,0.40612 -0.20423,0.66717 -0.24109,0.16077 -1.09113,0.96433 -1.88898,1.78571 -1.22376,1.25982 -1.51655,1.47686 -1.87202,1.38764 -0.23175,-0.0582 -0.93933,-0.17911 -1.57239,-0.26876 -0.86027,-0.12183 -1.51216,-0.37132 -2.58075,-0.98768 -2.03975,-1.17652 -3.25056,-2.72719 -4.0638,-5.20446 -0.1998,-0.60862 -0.43291,-1.195 -0.51801,-1.30308 -0.0851,-0.10807 -0.29615,-0.63306 -0.469,-1.16663 -0.40205,-1.24119 -1.15706,-2.5843 -1.99892,-3.55598 -0.3648,-0.42105 -0.83656,-1.01459 -1.04835,-1.31897 -0.40013,-0.57505 -0.3389,-0.75252 0.34314,-0.99456 0.16032,-0.0569 0.74761,-0.68437 1.30509,-1.3944 1.31038,-1.66894 2.38573,-2.79026 2.67588,-2.79026 0.12664,0 0.38369,0.0958 0.57122,0.21294 0.27737,0.17322 0.49899,0.14759 1.18823,-0.13741 l 0.84726,-0.35034 0.0528,-1.00681 c 0.0473,-0.9006 0.11239,-1.05058 0.61737,-1.42182 0.8873,-0.6523 1.86478,-1.09493 3.57096,-1.61703 1.34763,-0.41238 1.79138,-0.47039 3.02081,-0.39491 1.34975,0.0829 1.46407,0.0621 1.80276,-0.32743 0.19889,-0.22874 0.58226,-0.46319 0.85192,-0.521 0.26967,-0.0578 0.81351,-0.21982 1.20854,-0.36004 0.587,-0.20836 0.97363,-0.21943 2.11578,-0.0606 0.76864,0.10691 1.44687,0.27422 1.50718,0.37181 0.0603,0.0976 0.15104,0.86456 0.20161,1.70439 0.0961,1.59604 0.22847,2.05732 1.23548,4.3055 0.64413,1.43805 1.26576,2.4477 2.15384,3.49823 0.294,0.34778 0.6899,0.9034 0.87978,1.23473 0.18988,0.33132 0.54873,0.95959 0.79745,1.39615 0.636,1.11637 0.83159,1.87317 1.25799,4.86758 0.41644,2.92441 0.42817,3.74696 0.0729,5.1108 -0.29743,1.1419 -0.48024,1.49326 -1.39973,2.69017 -0.39661,0.51628 -0.93209,1.23065 -1.18994,1.5875 -0.30086,0.41637 -0.7376,0.74368 -1.21905,0.9136 -0.90123,0.31809 -1.18867,0.93174 -1.20912,2.58137 -0.0161,1.30125 0.24035,1.85119 1.15146,2.46893 0.37796,0.25625 1.18294,0.81222 1.78883,1.23548 0.6059,0.42327 1.14507,0.76957 1.19816,0.76957 0.20101,0 1.96185,1.40243 2.62068,2.08725 0.58493,0.60801 0.76525,0.99784 1.21227,2.62079 0.45541,1.65346 0.57542,2.47686 0.64419,4.42008 0.009,0.24087 0.12531,0.39688 0.29711,0.39688 0.15568,0 0.68188,0.20032 1.16934,0.44515 0.60434,0.30354 1.31387,0.47956 2.23047,0.55332 0.73931,0.0595 1.44679,0.18918 1.57217,0.28821 0.15712,0.12409 0.29141,0.11659 0.43215,-0.0242 0.11231,-0.1123 0.36132,-0.20419 0.55335,-0.20419 0.41815,0 2.59687,-0.69939 2.83466,-0.90995 0.0922,-0.0816 0.2835,-0.14838 0.42519,-0.14838 0.28482,0 2.99781,-1.90683 3.79147,-2.66485 0.27702,-0.26458 0.97535,-0.65745 1.55184,-0.87304 0.99688,-0.37281 1.2139,-0.38631 4.43522,-0.27599 3.51125,0.12024 9.27641,-0.19914 10.52963,-0.58333 0.33891,-0.10389 0.89566,-0.1889 1.23722,-0.1889 0.34155,0 1.05645,-0.16571 1.58866,-0.36826 0.53221,-0.20253 1.68202,-0.43465 2.55515,-0.51582 0.87312,-0.0812 2.26219,-0.3215 3.0868,-0.53409 0.82462,-0.21259 1.77712,-0.44867 2.11667,-0.52463 0.33955,-0.076 1.01424,-0.23619 1.49931,-0.35607 0.48507,-0.11989 1.15975,-0.28343 1.4993,-0.36344 1.19168,-0.28081 6.82295,-0.71855 9.96597,-0.77471 2.55106,-0.0456 3.46965,-0.13226 4.67431,-0.44109 2.00932,-0.5151 3.10462,-0.99519 4.05695,-1.77823 0.43656,-0.35895 1.42359,-0.89721 2.19341,-1.19613 l 1.39967,-0.54348 0.717,0.31977 c 1.10582,0.49317 5.38683,3.90395 6.47627,5.15979 0.53564,0.61745 1.14865,1.49124 1.36224,1.94176 l 0.38836,0.81912 -0.52091,0.76838 c -0.2865,0.42261 -0.7459,0.97444 -1.0209,1.22629 -0.86563,0.79276 -2.57265,1.92334 -2.90399,1.92334 -0.17494,0 -0.57874,0.11452 -0.89732,0.25448 -1.41224,0.62044 -5.82063,1.90265 -7.10564,2.06672 -1.71428,0.21889 -4.14514,0.84268 -4.14514,1.0637 0,0.21673 -1.11866,0.67204 -1.65116,0.67204 -0.41635,0 -0.7358,-0.41091 -0.5514,-0.70928 0.14341,-0.23204 -0.23212,-0.38386 -0.634,-0.25631 -0.20046,0.0636 -0.32461,0.21805 -0.27637,0.34376 0.0585,0.15253 -0.13443,0.26374 -0.5817,0.33526 -0.3681,0.0589 -0.77402,0.23324 -0.90205,0.3875 -0.201,0.24219 -0.61946,0.26835 -3.06562,0.1916 -1.55806,-0.0489 -3.11065,-0.17959 -3.4502,-0.29045 -0.65458,-0.21372 -1.44004,-0.30935 -3.43678,-0.41842 -0.94961,-0.0519 -1.27631,-0.007 -1.4256,0.19757 -0.2155,0.29472 -2.01679,0.54057 -2.01679,0.27527 0,-0.0906 0.21828,-0.25771 0.48507,-0.37128 0.43646,-0.1858 0.39669,-0.19785 -0.39687,-0.12016 -1.55842,0.15256 -5.68877,1.75629 -6.96296,2.70358 -0.9821,0.73014 -1.79627,1.08343 -2.55765,1.10983 -0.54325,0.0188 -8.41662,0.0243 -13.23356,0.009 -0.29104,-8.8e-4 -2.91042,-0.0101 -5.82083,-0.0205 -2.91042,-0.0104 -8.82386,0.0324 -13.14098,0.0951 -10.82514,0.1572 -19.95355,0.17392 -24.87083,0.0455 z m -12.73311,-49.85394 c 0.17581,-0.16977 0.73888,-0.69585 1.25125,-1.16906 1.66104,-1.53407 3.26043,-3.55832 4.1465,-5.24797 0.47671,-0.90902 1.17124,-1.98833 1.54341,-2.39847 0.37217,-0.41014 0.67667,-0.82525 0.67667,-0.92246 0,-0.0972 0.3175,-0.33872 0.70556,-0.53669 0.38805,-0.19797 0.70555,-0.41992 0.70555,-0.49322 0,-0.0733 0.53578,-0.53692 1.19063,-1.03026 1.24214,-0.9358 1.39189,-1.16053 2.33466,-3.5036 0.67787,-1.6847 0.80011,-1.85209 1.35254,-1.85209 0.48728,0 0.72983,-0.44481 0.46848,-0.85914 -0.421,-0.66741 -4.45468,-1.43612 -8.34492,-1.59031 -1.69774,-0.0673 -3.18516,-0.0911 -3.30538,-0.053 -0.12021,0.0381 -0.30656,0.3985 -0.41412,0.80083 -0.10755,0.40233 -0.26647,0.81819 -0.35316,0.92413 -0.0867,0.10594 -0.12279,0.22744 -0.0802,0.27 0.0426,0.0426 -0.11447,0.73726 -0.34895,1.54378 -0.57462,1.97649 -1.41017,7.40846 -1.59064,10.34083 -0.0529,0.86028 -0.33277,2.18766 -0.87267,4.13948 -0.28726,1.0385 -0.33643,1.6411 -0.14919,1.82834 0.21661,0.21661 0.76124,0.1206 1.08402,-0.19109 z m 15.80328,-23.73443 c 0.56738,-0.41487 0.96427,-1.96457 1.09202,-4.26389 0.11082,-1.99458 0.0884,-2.25404 -0.27718,-3.20355 -0.87308,-2.2678 -0.80875,-2.17972 -1.59207,-2.17972 -0.61556,0 -0.81652,0.10973 -1.49201,0.81471 -1.18509,1.23682 -1.5568,2.17845 -1.12984,2.86213 0.28019,0.44865 -0.16066,1.35024 -0.66023,1.35024 -0.20072,0 -0.477,0.0891 -0.61395,0.19807 -0.17554,0.13965 -0.82136,0.15582 -2.18927,0.0548 -1.86927,-0.13801 -4.51471,-0.0893 -5.67065,0.10431 -0.93618,0.15684 -1.4731,0.70863 -1.4731,1.51389 0,1.49904 1.12085,2.15012 4.37805,2.54311 3.9354,0.47481 9.10915,0.58545 9.62823,0.20588 z m 4.50463,-13.60924 c 0.51002,-0.34322 0.99717,-0.62404 1.08255,-0.62404 0.0854,0 0.5735,-0.26641 1.08471,-0.59203 1.76565,-1.12465 1.92897,-1.13508 3.83988,-0.24509 0.92164,0.42923 1.90234,0.83648 2.17934,0.90499 0.62919,0.15562 1.9354,-0.0305 2.35194,-0.33503 0.28472,-0.20819 0.29104,-0.29238 0.068,-0.9072 -0.13521,-0.37275 -0.25941,-1.05517 -0.27602,-1.51649 -0.0205,-0.57021 -0.14661,-0.96555 -0.3938,-1.23472 -0.19998,-0.21778 -0.44414,-0.75314 -0.54258,-1.1897 -0.33043,-1.46551 -0.74135,-2.84428 -0.98798,-3.31498 -0.23716,-0.45265 -0.28729,-0.46537 -1.63048,-0.41366 -1.78975,0.0689 -3.24943,0.40204 -3.48986,0.79648 -0.15235,0.24994 -0.0996,0.38469 0.27209,0.69506 0.59375,0.49579 0.77692,1.55004 0.40536,2.33305 -0.14728,0.31037 -0.72449,1.04278 -1.28269,1.62759 -1.02474,1.07357 -1.7745,1.44824 -2.90264,1.45047 -0.94398,0.002 -2.04207,0.92622 -2.05463,1.72954 -0.009,0.56753 0.4576,1.40595 0.82911,1.49021 0.37356,0.0847 0.29954,0.1182 1.44768,-0.65445 z m 139.00437,0.61069 c 0,-0.097 -0.0794,-0.17639 -0.17639,-0.17639 -0.097,0 -0.17639,0.0794 -0.17639,0.17639 0,0.097 0.0794,0.17639 0.17639,0.17639 0.097,0 0.17639,-0.0794 0.17639,-0.17639 z M 309.33867,255.682 c -0.18249,-0.3638 -0.37275,-0.97896 -0.4228,-1.36701 -0.0501,-0.38806 -0.33816,-1.22754 -0.64021,-1.86552 -0.69482,-1.46753 -0.8663,-2.26085 -0.53417,-2.47116 0.13536,-0.0857 0.62769,-0.15705 1.09408,-0.15854 0.46638,-0.001 1.4004,-0.0939 2.07561,-0.20544 0.67521,-0.11151 1.26382,-0.16657 1.30804,-0.12235 0.0442,0.0442 0.20196,0.65834 0.35056,1.36473 0.14859,0.70638 0.38886,1.45379 0.53392,1.6609 0.14507,0.20711 0.26376,0.50794 0.26376,0.6685 0,0.16056 0.11128,0.38428 0.24728,0.49715 0.136,0.11288 0.30082,0.41857 0.36627,0.67933 0.14829,0.59083 -0.49482,1.24066 -0.89727,0.90665 -0.1747,-0.14498 -0.38693,-0.14569 -0.79725,-0.003 -0.30755,0.10721 -0.71843,0.19493 -0.91308,0.19493 -0.19464,0 -0.61407,0.19844 -0.93205,0.44097 -0.31798,0.24254 -0.62151,0.44097 -0.67452,0.44097 -0.053,0 -0.24568,-0.29765 -0.42817,-0.66145 z m -59.91255,-5.896 c 0.0767,-0.5783 0.27393,-1.10848 0.51345,-1.38004 0.37009,-0.41962 0.38716,-0.5776 0.35241,-3.26319 -0.0219,-1.69034 0.0413,-3.05209 0.15765,-3.39538 0.14613,-0.43134 0.14177,-0.62554 -0.0176,-0.78493 -0.26639,-0.26638 -0.27284,-1.04895 -0.0133,-1.61848 0.14582,-0.32002 0.14664,-0.58412 0.003,-0.99584 -0.13915,-0.39916 -0.14123,-0.6614 -0.007,-0.91177 0.14511,-0.27113 0.10394,-0.54706 -0.18018,-1.20751 -0.30484,-0.7086 -0.33289,-0.93372 -0.16289,-1.30685 0.16217,-0.35591 0.15305,-0.55285 -0.0434,-0.93584 -0.16481,-0.32139 -0.2492,-1.08028 -0.2501,-2.24896 -0.001,-1.29622 -0.10245,-2.10007 -0.38268,-3.03185 l -0.38134,-1.26796 0.38263,-0.43986 c 0.42524,-0.48883 1.14462,-0.73003 1.67514,-0.56165 0.63359,0.2011 1.55564,2.6208 1.88568,4.94854 0.15167,1.0697 0.14811,5.13494 -0.007,8.37847 -0.17123,3.57272 0.59082,8.41925 1.53424,9.75759 0.54416,0.77194 0.32949,1.00048 -0.95127,1.01276 -0.60938,0.006 -1.81076,0.0514 -2.66972,0.10123 l -1.56174,0.0906 0.12451,-0.93908 z m 141.55888,0.12699 c -0.26445,-0.31862 -0.0946,-0.62509 0.34635,-0.62509 0.18258,0 0.38317,0.0829 0.44576,0.18412 0.11696,0.18925 -0.20791,0.69783 -0.44576,0.69783 -0.0732,0 -0.22913,-0.11559 -0.34635,-0.25686 z m -124.11664,-2.19498 c -0.52988,-0.0772 -0.85742,-0.26249 -1.21164,-0.6854 -0.92668,-1.1064 -1.73396,-1.30122 -3.4477,-0.83204 -3.50761,0.9603 -4.49054,0.93183 -5.05578,-0.14645 -0.25072,-0.47832 -0.28448,-1.06548 -0.23494,-4.08635 0.10571,-6.4447 0.043,-11.62872 -0.15366,-12.7 -0.25517,-1.39017 -0.80741,-2.75548 -1.6373,-4.04792 -0.89502,-1.39388 -0.87952,-1.52625 0.16408,-1.40114 1.94594,0.23329 4.50283,1.33478 6.2177,2.67854 0.99888,0.78272 2.99862,2.71502 2.99862,2.89751 0,0.0755 0.32506,0.47214 0.72237,0.88154 0.62345,0.64242 0.70951,0.82361 0.62845,1.32312 -0.0893,0.55059 -0.0671,0.57876 0.45692,0.57876 0.44308,0 0.76183,0.21568 1.62928,1.10243 0.59314,0.60634 1.41301,1.40095 1.82194,1.7658 1.14664,1.02305 1.91002,2.13127 2.14616,3.11563 0.11828,0.49302 0.27954,0.93626 0.35836,0.98497 0.28407,0.17556 0.371,1.48474 0.18662,2.81039 l -0.18808,1.35226 -1.27928,1.27336 c -0.7036,0.70035 -1.69374,1.72795 -2.20032,2.28357 -0.50658,0.55561 -0.98283,0.99828 -1.05834,0.98371 -0.0755,-0.0146 -0.46406,-0.0741 -0.86346,-0.13229 z m -66.56618,-1.95788 c 0,-0.097 0.0794,-0.17639 0.17639,-0.17639 0.097,0 0.17639,0.0794 0.17639,0.17639 0,0.097 -0.0794,0.17639 -0.17639,0.17639 -0.097,0 -0.17639,-0.0794 -0.17639,-0.17639 z m 76.32845,-1.63439 c -0.0572,-0.14918 -0.19846,-0.91672 -0.31382,-1.70564 -0.20617,-1.41001 -0.20055,-1.45905 0.33047,-2.88365 0.29711,-0.79708 0.59445,-1.76674 0.66076,-2.1548 0.31296,-1.83164 1.98328,-6.19093 2.78594,-7.2709 0.30434,-0.40949 0.75178,-1.04172 0.99431,-1.40496 0.63935,-0.95755 2.11459,-2.36155 2.77246,-2.63859 0.86755,-0.36533 1.73958,-0.30378 2.16496,0.15282 0.30108,0.32317 0.42259,0.3559 0.69341,0.18677 0.382,-0.23856 0.54278,-0.13152 0.54278,0.36134 0,0.19358 0.21561,0.71614 0.47913,1.16122 0.28042,0.47363 0.52624,1.21159 0.59273,1.77939 0.0625,0.53357 0.25085,1.56545 0.4186,2.29305 0.64317,2.78969 0.8026,3.6371 0.8026,4.26589 0,0.35752 0.0914,0.87349 0.20308,1.14659 0.1117,0.2731 0.23155,0.73468 0.26635,1.02572 0.0348,0.29104 0.10834,0.84666 0.16344,1.23472 0.0942,0.66352 0.0423,0.76945 -0.8714,1.77802 -1.15796,1.27823 -2.63048,2.33173 -3.57474,2.55753 -0.37655,0.09 -2.55717,0.21389 -4.84581,0.27522 -3.64937,0.0978 -4.17396,0.0781 -4.26525,-0.15974 z m 43.3302,-32.23116 c -1.03733,-0.15265 -1.14233,-0.2266 -5.69024,-4.00757 -1.49207,-1.24044 -3.15894,-2.59688 -3.70417,-3.0143 -1.37083,-1.04949 -4.96007,-4.44135 -4.96007,-4.6873 0,-0.11085 -0.15875,-0.30068 -0.35278,-0.42185 -0.78496,-0.49022 -0.13999,-1.40423 0.84819,-1.20198 0.66109,0.13529 6.56829,0.36825 8.02215,0.31636 1.30708,-0.0467 4.08114,-0.77286 4.54059,-1.18864 0.15832,-0.14328 0.9561,-0.47733 1.77284,-0.74232 1.17659,-0.38175 1.76904,-0.47379 2.85283,-0.44317 1.12136,0.0317 1.5429,-0.0388 2.33933,-0.391 0.53432,-0.23631 1.01368,-0.53958 1.06524,-0.67394 0.0516,-0.13436 0.64419,-0.73712 1.31696,-1.33947 l 1.22322,-1.09518 0.73276,0.19731 c 0.40301,0.10852 1.17861,0.40145 1.72356,0.65094 0.54494,0.2495 1.38768,0.58095 1.87275,0.73655 0.78086,0.25048 0.93249,0.384 1.32292,1.16486 0.38847,0.77695 0.43733,1.08513 0.4104,2.58873 -0.0691,3.85804 -1.17447,5.86349 -4.15867,7.54498 -0.55783,0.31432 -1.01423,0.63632 -1.01423,0.71556 0,0.19424 -1.99244,1.60202 -3.08681,2.18102 -0.48507,0.25663 -1.00101,0.54413 -1.14653,0.63889 -0.14552,0.0948 -1.13771,0.57968 -2.20486,1.07759 -1.06715,0.49791 -2.05934,1.00292 -2.20486,1.12224 -0.40339,0.33076 -0.72661,0.38851 -1.52052,0.27169 z m -24.32045,-16.93445 c -0.0621,-0.10044 0.0898,-0.17639 0.35277,-0.17639 0.26295,0 0.41486,0.076 0.35278,0.17639 -0.06,0.097 -0.21871,0.17639 -0.35278,0.17639 -0.13407,0 -0.29282,-0.0794 -0.35277,-0.17639 z m -5.11528,-1.41111 c -0.06,-0.097 -0.54586,-0.17639 -1.07978,-0.17639 -1.38905,0 -6.2926,-0.71353 -6.51946,-0.94866 -0.21997,-0.22799 -0.0611,-3.48035 0.24658,-5.04857 0.10469,-0.53357 0.27987,-2.06614 0.38929,-3.40569 0.11618,-1.42239 0.31672,-2.70648 0.48208,-3.08681 0.15573,-0.35818 0.34896,-1.16718 0.42939,-1.79777 0.0804,-0.63059 0.21803,-1.62278 0.30576,-2.20486 0.0877,-0.58209 0.25278,-1.69334 0.36676,-2.46945 0.11398,-0.77611 0.17329,-2.28424 0.1318,-3.35139 -0.0415,-1.06715 -0.006,-2.53559 0.0778,-3.26319 0.0843,-0.72761 0.15024,-1.44198 0.14659,-1.5875 -0.0516,-2.05852 0.0324,-3.46325 0.21822,-3.64909 0.15177,-0.15177 1.00319,-0.2261 2.77652,-0.2424 l 2.55763,-0.0235 1.93392,0.72754 c 3.70975,1.39559 5.9766,1.85121 11.9126,2.39435 2.29789,0.21026 4.05606,0.50386 6.87917,1.14875 3.81173,0.87073 6.91506,1.45445 8.94043,1.68164 1.18141,0.13252 2.17207,0.61439 2.17207,1.05653 0,0.56352 -1.04552,4.61975 -1.49855,5.81383 -0.25765,0.67909 -0.64981,1.72914 -0.87146,2.33343 -0.42786,1.16649 -1.32025,2.3248 -3.27443,4.2502 -1.39289,1.37237 -2.75276,2.31862 -4.55241,3.16774 -0.74614,0.35205 -1.436,0.7285 -1.53301,0.83656 -0.28297,0.31519 -1.11247,0.78915 -1.38112,0.78915 -0.13585,0 -0.4363,0.14783 -0.66766,0.32851 -0.23137,0.18069 -0.6191,0.38804 -0.86164,0.46079 -0.24253,0.0728 -0.63941,0.30613 -0.88194,0.51862 -1.1261,0.98658 -3.48326,2.20508 -4.28619,2.21567 -0.17459,0.002 -0.54446,0.12158 -0.82192,0.26506 -0.27746,0.14349 -1.16649,0.33872 -1.97562,0.43387 -4.42617,0.52047 -4.47516,0.53008 -6.14544,1.20619 -1.36419,0.5522 -1.89558,0.86013 -2.41692,1.40056 -0.40324,0.418 -1.00982,0.53247 -1.19905,0.22629 z m -23.72431,-11.04755 c -0.14552,-0.046 -0.66146,-0.27051 -1.14653,-0.49899 -0.48507,-0.22848 -1.43757,-0.57428 -2.11666,-0.76846 -1.95731,-0.55965 -3.61635,-1.2987 -3.61307,-1.6095 0.002,-0.15115 0.1959,-0.59231 0.43179,-0.98037 0.23589,-0.38805 0.58597,-0.98867 0.77795,-1.33471 0.19199,-0.34604 0.47393,-0.73279 0.62655,-0.85945 0.15261,-0.12665 0.27747,-0.33123 0.27747,-0.45461 0,-0.12339 0.22286,-0.46291 0.49525,-0.7545 0.50957,-0.54549 1.2317,-0.82868 2.76795,-1.08547 1.74098,-0.29102 2.93593,-0.72445 4.03354,-1.46307 1.30397,-0.8775 2.50206,-2.19468 2.66308,-2.92782 0.14472,-0.6589 1.25837,-1.96828 1.67405,-1.96828 0.17462,0 0.60245,-0.11906 0.95073,-0.26459 0.83062,-0.34705 1.37488,-0.33381 2.91662,0.071 1.37995,0.3623 1.85354,0.68281 2.23557,1.51296 0.13484,0.29301 0.40295,0.73119 0.59581,0.97372 0.32943,0.41429 0.34109,0.57999 0.19279,2.73848 -0.14327,2.08523 -0.34939,3.2328 -1.17816,6.55915 -0.15012,0.60255 -0.37576,1.18086 -0.50141,1.28515 -0.22701,0.1884 -3.68338,0.74622 -4.46774,0.72104 -0.22556,-0.007 -0.55616,0.065 -0.73466,0.16052 -0.1785,0.0955 -1.16689,0.29194 -2.19642,0.43646 -1.02953,0.14452 -2.02325,0.34378 -2.20826,0.44279 -0.33686,0.18028 -1.97871,0.22576 -2.47624,0.0686 z m 16.05992,-6.1401 c -0.29098,-0.35061 -0.0965,-0.87553 0.27197,-0.73413 0.15264,0.0586 0.39009,0.1065 0.52768,0.1065 0.13758,0 0.25015,0.15875 0.25015,0.35278 0,0.19402 -0.0729,0.35277 -0.16196,0.35277 -0.0891,0 -0.2748,0.0433 -0.41271,0.0962 -0.13791,0.0529 -0.35172,-0.0255 -0.47513,-0.17415 z m 70.37064,-29.00542 c 0,-0.097 0.0794,-0.22545 0.17639,-0.28541 0.097,-0.0599 0.17639,-0.0296 0.17639,0.0674 0,0.097 -0.0794,0.22544 -0.17639,0.2854 -0.097,0.06 -0.17639,0.0296 -0.17639,-0.0674 z"
       id="path42" />
  </g>
</svg>
