<?xml version="1.0" encoding="UTF-8" standalone="no"?>
<svg
   xmlns:dc="http://purl.org/dc/elements/1.1/"
   xmlns:cc="http://creativecommons.org/ns#"
   xmlns:rdf="http://www.w3.org/1999/02/22-rdf-syntax-ns#"
   xmlns:svg="http://www.w3.org/2000/svg"
   xmlns="http://www.w3.org/2000/svg"
   width="40.977013mm"
   height="194.57912mm"
   viewBox="0 0 40.977013 194.57912"
   version="1.1"
   id="svg8">
  <defs
     id="defs2" />
  <metadata
     id="metadata5">
    <rdf:RDF>
      <cc:Work
         rdf:about="">
        <dc:format>image/svg+xml</dc:format>
        <dc:type
           rdf:resource="http://purl.org/dc/dcmitype/StillImage" />
        <dc:title></dc:title>
      </cc:Work>
    </rdf:RDF>
  </metadata>
  <g
     id="layer1"
     transform="translate(-88.261615,-39.960818)">
    <path
       style="fill:#000000;stroke-width:0.176389"
       d="m 99.372618,234.40528 c -2.83185,-0.0935 -3.40309,-0.16191 -4.32152,-0.51731 -1.26827,-0.49077 -1.9734,-0.68222 -3.2632,-0.88606 -2.35617,-0.37234 -2.73449,-0.61487 -2.89931,-1.85877 -0.16114,-1.21606 -0.17326,-7.54845 -0.0483,-25.22361 0.14561,-20.58973 0.18269,-102.40793 0.049,-108.126382 -0.0522,-2.23132 -0.13795,-11.28007 -0.19062,-20.108334 -0.0527,-8.828264 -0.16957,-17.043576 -0.25978,-18.25625 -0.36404,-4.89412 -0.1247,-18.821893 0.33128,-19.277878 0.23846,-0.238458 8.19137,-0.257028 12.366302,-0.02887 2.83746,0.155063 4.195,0.301305 4.7625,0.51304 0.43656,0.162884 1.38906,0.421771 2.11666,0.575304 0.77456,0.163441 1.61538,0.478218 2.02848,0.759401 0.38805,0.264137 1.57868,0.911377 2.64583,1.438311 3.18439,1.572375 7.31468,4.036835 8.20724,4.897089 0.72111,0.695017 1.34496,1.562955 2.6977,3.753165 0.16266,0.263375 0.29575,0.642165 0.29575,0.841755 0,0.199591 0.34437,1.254102 0.76527,2.34336 0.4209,1.089256 0.87017,2.555841 0.99839,3.259079 0.12822,0.703238 0.39564,1.536675 0.59426,1.852083 0.5392,0.856225 0.8243,1.687911 0.98266,2.866526 0.18715,1.392867 0.80429,4.488692 1.34795,6.761905 l 0.43599,1.823018 0.0253,17.138788 c 0.0139,9.426338 0.0195,17.45628 0.0126,17.84434 -0.007,0.38805 0.0264,4.59493 0.0742,9.34861 0.16001,15.90903 0.15798,16.37115 -0.0741,16.89265 -0.17793,0.39978 -0.27402,0.45584 -0.52916,0.30875 -0.17147,-0.0988 -0.52152,-0.25393 -0.7779,-0.34463 -0.45994,-0.16271 -0.46749,-0.19268 -0.5663,-2.24903 -0.0551,-1.14627 -0.19358,-3.39382 -0.30777,-4.99455 -0.23615,-3.31044 -0.25758,-5.24899 -0.069,-6.2404 0.13414,-0.70513 -0.14595,-3.36074 -0.48596,-4.60751 -0.10583,-0.38806 -0.20687,-2.174 -0.22454,-3.96875 -0.0231,-2.34441 -0.11335,-3.58602 -0.32063,-4.40972 -0.15868,-0.6306 -0.28968,-1.39332 -0.29111,-1.69494 -10e-4,-0.30162 -0.23973,-1.016 -0.52954,-1.5875 -0.28982,-0.5715 -0.52794,-1.29135 -0.52917,-1.59966 -0.002,-0.54891 -0.0231,-0.56318 -1.00287,-0.6856 -1.4267,-0.17825 -4.05855,0.0223 -4.55418,0.34707 -0.35551,0.23293 -0.42623,0.46765 -0.53525,1.77653 -0.13347,1.60223 0.0825,4.30582 0.50764,6.35451 0.48885,2.35573 0.66825,4.60291 0.62667,7.84931 -0.023,1.79475 0.0509,4.43842 0.1643,5.87481 0.21789,2.76099 0.13779,4.30738 -0.26445,5.105 -0.21071,0.41785 -0.20804,0.54019 0.0194,0.88731 0.1451,0.22144 0.35058,1.19396 0.45662,2.16115 0.10605,0.9672 0.29949,2.27447 0.42987,2.90506 0.34397,1.6636 0.58376,3.34226 0.80629,5.64444 0.10785,1.11566 0.26595,2.24899 0.35135,2.51852 0.24015,0.75795 0.0472,1.03629 -0.67558,0.97448 -0.52047,-0.0445 -0.69089,-0.17091 -1.02335,-0.75897 -0.21939,-0.38805 -0.48988,-1.26118 -0.60109,-1.94028 -0.11121,-0.67909 -0.31107,-1.71097 -0.44413,-2.29305 -0.13306,-0.58208 -0.37247,-1.65365 -0.53202,-2.38125 -0.387,-1.76487 -1.052,-4.6268 -1.57795,-6.79097 -0.48401,-1.99163 -0.93342,-3.96841 -1.60402,-7.05556 -0.25289,-1.16417 -0.76997,-3.03812 -1.14908,-4.16434 -0.37911,-1.12622 -0.68929,-2.20621 -0.68929,-2.39998 0,-0.19377 -0.26396,-0.70107 -0.58659,-1.12733 -1.33673,-1.76611 -1.88802,-3.40105 -2.23627,-6.63202 -0.12309,-1.14201 -0.3593,-2.20596 -0.64614,-2.91041 -0.577,-1.41707 -0.94072,-2.80946 -0.94072,-3.60126 0,-0.34188 -0.15275,-1.27065 -0.33945,-2.063952 -0.18669,-0.7933 -0.43157,-2.11706 -0.54417,-2.94167 -0.2223,-1.62793 -0.59266,-2.96044 -1.05406,-3.792368 -0.16142,-0.29104 -0.39464,-1.0451 -0.51828,-1.67569 -0.48754,-2.486517 -0.96632,-3.527778 -1.62212,-3.527778 -0.63754,0 -0.71972,0.576808 -0.59924,4.205608 0.22394,6.744808 0.74803,10.74765 1.47941,11.29933 0.75439,0.56904 1.08124,1.64818 1.08124,3.56985 0,1.36175 0.0565,1.77183 0.25437,1.84778 0.17553,0.0674 0.25227,0.36806 0.24761,0.97017 -0.004,0.47991 0.0995,1.00065 0.22947,1.15721 0.135,0.16266 0.28416,0.96225 0.34805,1.86584 0.10095,1.42755 0.19462,1.74581 0.96386,3.27509 0.82509,1.64029 0.85683,1.76108 1.0032,3.81713 0.141,1.98059 0.44202,3.94814 1.09398,7.15032 0.14813,0.7276 0.38502,2.39448 0.52641,3.70417 0.34501,3.19573 0.52526,4.3318 0.85357,5.37986 0.15194,0.48507 0.48697,2.03288 0.74449,3.43958 0.25753,1.4067 0.61452,3.03389 0.79333,3.61597 0.46859,1.52549 0.6642,2.9013 0.97805,6.87917 0.15308,1.94028 0.34405,3.80559 0.42437,4.14514 0.0803,0.33955 0.65937,2.64142 1.28678,5.11528 0.62742,2.47385 1.27717,5.09323 1.44389,5.82083 0.16672,0.7276 0.60601,2.23573 0.9762,3.35139 0.37018,1.11566 0.84823,2.78253 1.06233,3.70416 0.2141,0.92164 0.58661,2.50246 0.8278,3.51295 0.50477,2.1148 0.47057,2.4607 -0.39657,4.0113 -0.82118,1.4684 -0.99107,1.54594 -2.68125,1.22376 -1.34709,-0.25679 -1.37182,-0.25492 -1.71952,0.12983 -0.93601,1.03572 -2.25201,3.36313 -2.40849,4.25954 -0.051,0.29241 0.0657,0.36666 0.71797,0.45672 0.56886,0.0785 0.89209,0.24601 1.19849,0.62096 0.68436,0.83746 1.66137,2.67273 1.99713,3.75151 0.385,1.23702 0.5704,4.04375 0.39198,5.93413 -0.11809,1.25113 -0.17543,1.41714 -0.50572,1.46428 -0.31654,0.0452 -0.40334,0.244 -0.57757,1.32292 -0.11277,0.69836 -0.35402,1.94443 -0.53611,2.76905 -0.76743,3.47547 -0.85974,4.36665 -0.46785,4.51703 0.34449,0.1322 0.86287,-0.16385 2.30684,-1.31744 1.49445,-1.19392 1.68141,-1.40858 2.40268,-2.75862 0.31099,-0.58208 0.67824,-1.12557 0.81611,-1.20775 0.13788,-0.0822 0.93849,-0.77472 1.77914,-1.53896 1.42637,-1.29673 1.87041,-1.5621 3.04601,-1.82043 0.42823,-0.0941 0.4675,-0.18745 0.58172,-1.38286 0.34428,-3.60289 0.43536,-5.24972 0.3376,-6.10369 -0.13179,-1.15114 0.20552,-3.68553 0.64946,-4.87964 0.38328,-1.03097 0.61078,-2.74412 0.56018,-4.2184 -0.0197,-0.57387 0.0139,-1.19999 0.0746,-1.39139 0.10075,-0.31741 0.13992,-0.30144 0.44588,0.18179 0.37611,0.59401 0.3763,0.5996 0.18083,5.25161 -0.0775,1.84326 -0.23414,3.6287 -0.34818,3.96765 -0.16386,0.48697 -0.15665,0.80151 0.0343,1.4993 0.36985,1.35126 0.38415,20.82836 0.0154,20.96986 -0.21749,0.0835 -0.20291,0.23404 0.0961,0.99253 0.32551,0.82583 0.35243,1.31182 0.35243,6.36132 0,4.23222 -0.0546,5.59795 -0.24184,6.04601 -0.20899,0.50019 -0.97221,1.1856 -2.47509,2.22275 -0.20343,0.14039 -1.04588,0.82474 -1.87211,1.52079 -2.21489,1.86587 -2.66092,2.12367 -4.86499,2.81171 -4.6319,1.44594 -7.78977,2.53552 -8.365,2.88618 -0.33749,0.20572 -0.81207,0.37435 -1.05464,0.37472 -0.24258,0 -0.99664,0.11834 -1.6757,0.26217 -1.28933,0.2731 -3.02468,0.29033 -9.083962,0.0902 z m 1.024312,-2.3102 c 0.46962,0.25132 1.84672,0.25162 2.0979,0 0.14126,-0.14125 0.3639,-0.13275 0.81741,0.0312 0.50416,0.18231 0.67489,0.18254 0.89337,0.002 0.18178,-0.15085 0.5064,-0.18422 0.99277,-0.10206 0.55488,0.0937 0.79898,0.053 1.05132,-0.17533 0.1867,-0.16896 0.82367,-0.35881 1.47475,-0.43956 1.75724,-0.21793 1.84622,-0.34803 0.93673,-1.3698 -0.32408,-0.36408 -0.96834,-1.41603 -1.43169,-2.33766 -0.46336,-0.92164 -0.90202,-1.75507 -0.97481,-1.85209 -0.28662,-0.38209 -0.88483,-2.24825 -0.88483,-2.76038 0,-0.51629 -0.0274,-0.53703 -0.57396,-0.4345 -0.57024,0.10698 -0.57908,0.0977 -1.36701,-1.43 -0.94704,-1.83622 -2.1106,-3.06932 -3.26849,-3.46387 -2.490372,-0.84855 -5.258682,1.70138 -5.892412,5.42757 -0.14134,0.83108 -0.16806,2.21619 -0.0839,4.34877 0.11949,3.02711 0.13662,3.13526 0.52468,3.31207 0.22064,0.10052 0.72816,0.15025 1.12783,0.11049 0.64964,-0.0646 0.745,-0.024 0.89976,0.38299 0.14043,0.36938 0.2474,0.43113 0.56683,0.32733 1.06224,-0.34525 1.64173,-0.30369 2.07742,0.14899 0.25488,0.26481 0.47284,0.37045 0.54003,0.26173 0.0768,-0.12434 0.228292,-0.12042 0.476282,0.0123 z m 11.03047,-2.10917 c 0.27572,-0.0827 0.73561,-0.10351 1.02197,-0.0462 0.51813,0.10363 4.03298,-0.91664 4.03298,-1.17068 0,-0.0643 0.16495,-0.29404 0.36656,-0.51043 l 0.36657,-0.39347 -0.40663,-1.00681 c -0.22364,-0.55374 -0.57805,-1.32431 -0.78758,-1.71237 -5.23785,-9.7008 -6.58395,-12.53513 -7.98078,-16.80422 -0.47499,-1.45169 -1.06973,-3.15464 -1.32164,-3.78433 -0.25192,-0.62968 -0.51094,-1.59506 -0.57561,-2.14528 -0.0647,-0.55022 -0.19085,-1.04568 -0.2804,-1.10103 -0.0896,-0.0554 -0.90441,-0.13216 -1.81077,-0.17069 l -1.64793,-0.0701 -0.12038,0.87529 c -0.0662,0.48141 -0.0354,1.57249 0.0685,2.42461 0.10386,0.85213 0.22981,2.42245 0.27989,3.4896 0.0808,1.72282 0.18762,2.22693 0.95273,4.49792 0.47392,1.4067 1.11627,3.19264 1.42744,3.96875 0.31117,0.77611 0.90764,2.44298 1.32549,3.70416 0.72187,2.1788 1.43915,4.1281 1.94715,5.29167 0.20798,0.47639 1.46676,3.60768 1.86854,4.64815 0.11659,0.30191 0.24352,0.38091 0.46641,0.2903 0.16843,-0.0685 0.53182,-0.19216 0.80753,-0.27485 z m 9.2027,-2.83512 c 1.27226,-0.68121 4.4786,-3.32803 5.05891,-4.17609 0.31138,-0.45507 0.68124,-0.94437 0.82191,-1.08735 0.2148,-0.21835 0.23756,-0.86799 0.14213,-4.05695 -0.0717,-2.39514 -0.0474,-4.03614 0.0658,-4.44478 0.2813,-1.01546 0.29071,-3.15667 0.0167,-3.80602 -0.33789,-0.80079 -1.07512,-0.78486 -2.12009,0.0458 -0.42596,0.33861 -0.83555,0.61565 -0.9102,0.61565 -0.27856,0 -1.93129,1.42896 -1.93129,1.6698 0,0.13776 -0.14523,0.35419 -0.32273,0.48096 -0.17749,0.12677 -0.72067,0.90518 -1.20705,1.7298 -1.68973,2.86478 -3.80699,5.90506 -4.53039,6.50543 -0.40641,0.33729 -0.36383,0.5028 0.20499,0.79694 0.27216,0.14074 0.59665,0.48013 0.7211,0.75419 0.12445,0.27407 0.55083,0.97439 0.94751,1.55628 0.39668,0.58191 0.76981,1.29628 0.82917,1.5875 0.0691,0.33911 0.27988,0.61226 0.58613,0.75963 0.35009,0.16846 0.47821,0.36143 0.47821,0.72025 0,0.83078 0.15905,0.87907 1.14914,0.34895 z m -27.409472,-9.52683 c 0.46199,-1.17138 1.8114,-2.6204 2.44027,-2.6204 0.32932,0 0.36071,-0.11007 0.36465,-1.27882 0.006,-1.79893 0.26145,-2.72725 0.96431,-3.50523 0.63581,-0.70377 1.0615,-1.88695 0.88217,-2.45196 -0.13925,-0.43874 -0.92338,-1.05427 -1.34305,-1.05427 -0.20114,0 -0.41983,-0.22024 -0.56923,-0.57326 -0.13343,-0.3153 -0.40202,-0.71516 -0.59686,-0.88858 -1.06619,-0.94903 -2.48682,1.59075 -3.13449,5.60377 -0.2518,1.5602 -0.28892,2.45248 -0.19082,4.58611 0.067,1.45698 0.16456,2.82235 0.21682,3.03417 0.15201,0.61613 0.51279,0.29817 0.96623,-0.85153 z m 22.958152,-0.0223 c 0.46363,-0.60436 1.25738,-1.62906 1.76389,-2.27713 1.42877,-1.82804 2.80385,-3.81618 3.4492,-4.98694 0.69362,-1.25836 1.03852,-1.67201 1.56062,-1.87171 0.52935,-0.20248 0.68362,-1.37052 0.39877,-3.01926 -0.31203,-1.80605 -0.66084,-2.51158 -1.27669,-2.5823 -0.4053,-0.0465 -0.68805,0.1409 -1.5964,1.05833 -0.60713,0.61319 -1.46761,1.40887 -1.91219,1.76818 -0.82417,0.66608 -2.55742,2.87858 -4.11729,5.25575 -0.47745,0.7276 -1.20734,1.6801 -1.62198,2.11666 -0.91427,0.96261 -1.04754,1.83745 -0.32193,2.11332 0.28207,0.10724 0.5991,0.51923 0.91286,1.18625 0.50816,1.08036 1.44567,2.33881 1.74179,2.33809 0.097,0 0.55572,-0.4949 1.01935,-1.09924 z m -13.07794,-1.37024 c -0.10622,-0.30471 -0.39321,-0.7114 -0.63775,-0.90377 -0.33251,-0.26155 -0.44398,-0.51331 -0.44207,-0.99839 0.001,-0.35677 -0.15066,-1.16459 -0.33791,-1.79518 -0.18725,-0.63059 -0.45003,-1.62278 -0.58395,-2.20486 -0.19428,-0.84445 -0.31841,-1.06925 -0.6142,-1.11234 -0.561062,-0.0817 -2.153502,1.59343 -2.776622,2.92086 l -0.51776,1.10297 0.38547,0.35911 c 0.22872,0.21308 0.38546,0.5715 0.38546,0.88141 0,0.47546 0.0533,0.52229 0.59438,0.52229 0.60808,0 2.427122,0.51945 3.148632,0.89913 0.22117,0.11639 0.63038,0.40153 0.90935,0.63364 0.6137,0.51061 0.74303,0.42963 0.48697,-0.30487 z m 8.97338,-5.77199 c 0.19616,-0.66876 0.77884,-4.12179 1.04885,-6.21563 0.0813,-0.63059 0.34888,-1.70215 0.59457,-2.38125 0.35408,-0.97867 1.3536,-5.23557 1.3536,-5.76492 0,-0.0642 -0.25797,-0.20252 -0.57326,-0.30734 -0.32243,-0.1072 -0.70161,-0.41645 -0.86659,-0.70676 -0.16132,-0.2839 -0.5582,-0.65013 -0.88194,-0.81386 -0.32375,-0.16373 -0.76212,-0.4562 -0.97416,-0.64993 l -0.38553,-0.35223 -0.54051,0.38488 c -0.63184,0.44991 -0.62035,0.40038 -0.25628,1.1044 0.59502,1.15065 -0.22702,3.27701 -1.48139,3.83185 -0.3943,0.17441 -0.61777,0.42285 -0.71397,0.79375 -0.1182,0.4557 -0.2263,0.54083 -0.69332,0.54595 -0.30431,0.003 -0.60336,0.0561 -0.66455,0.11733 -0.0612,0.0612 0.38707,1.08869 0.99613,2.28333 1.02014,2.00093 1.12449,2.31288 1.32445,3.95922 0.22252,1.83208 0.99304,4.20188 1.57548,4.84546 0.41266,0.45599 0.88978,0.17341 1.13842,-0.67425 z m -11.36545,-4.76042 c -0.0509,-0.55783 -0.13899,-1.68893 -0.19584,-2.51354 -0.0568,-0.82462 -0.18608,-1.81681 -0.28718,-2.20487 -0.260282,-0.999 -1.237302,-2.25143 -2.276602,-2.91835 -0.4887,-0.31359 -0.85186,-0.66577 -0.80702,-0.78262 0.0448,-0.11684 0.17863,-0.84005 0.29732,-1.60712 0.39542,-2.55544 1.04911,-5.70377 1.3301,-6.40603 0.32688,-0.81696 1.764052,-2.20379 2.481512,-2.39461 0.27655,-0.0735 0.86001,-0.15087 1.29657,-0.17183 1.34594,-0.0646 1.27255,0.007 1.1365,-1.10937 -0.21458,-1.76069 -0.73623,-3.15431 -1.46907,-3.92468 -0.36913,-0.38804 -0.7902,-0.70552 -0.9357,-0.70552 -0.69795,0 -1.314482,1.41372 -1.559392,3.57571 -0.0989,0.8732 -0.23346,1.67604 -0.29898,1.78409 -0.0655,0.10804 -0.46933,0.6727 -0.89737,1.25478 -0.42803,0.58208 -0.8406,1.21708 -0.91681,1.41111 -0.0762,0.19403 -0.48399,0.87668 -0.90617,1.51701 -0.42218,0.64033 -0.90281,1.41424 -1.06808,1.7198 -0.16526,0.30555 -0.36766,0.55555 -0.44978,0.55555 -0.18317,0 -0.57266,-1.81885 -0.57266,-2.67423 0,-0.77575 0.30446,-1.71175 0.70795,-2.17646 0.78903,-0.90876 1.14959,-2.55687 1.3325,-6.0909 l 0.12352,-2.38672 1.07878,-0.52004 c 1.14675,-0.5528 1.9561,-0.63054 4.348802,-0.41768 1.19556,0.10636 1.713,0.29411 2.10185,0.76265 0.32627,0.39313 0.69797,0.33817 0.87577,-0.12949 0.18469,-0.48577 1.36751,-1.58281 2.13386,-1.97911 0.50675,-0.26205 0.54437,-0.34073 0.44758,-0.93602 -0.0973,-0.59848 -0.0565,-0.68145 0.51562,-1.04841 0.3417,-0.21918 0.62128,-0.47626 0.62128,-0.5713 0,-0.25452 -2.51349,-1.46512 -4.19354,-2.01978 -1.56483,-0.51661 -2.8225,-1.37029 -3.68514,-2.50137 l -0.4998,-0.65532 0.0209,-4.07062 c 0.0153,-2.98737 0.0997,-4.49307 0.31697,-5.65812 0.69293,-3.71515 1.08671,-6.46886 1.33686,-9.34861 0.21073,-2.42597 0.47538,-4.05867 0.75027,-4.6287 0.13854,-0.28728 0.13493,-0.51768 -0.0132,-0.84279 -0.43867,-0.96278 -1.19693,-0.79911 -2.66524,0.57532 -2.328472,2.17958 -3.778352,3.67666 -4.222102,4.35954 -0.63965,0.98436 -3.10315,4.23479 -3.54263,4.67426 -0.40698,0.40699 -0.45521,0.72397 -0.15574,1.02345 0.15514,0.15513 0.15189,0.63901 -0.0134,2.00313 -0.16029,1.32257 -0.18016,3.18012 -0.0751,7.01858 0.0786,2.87099 0.13078,8.56839 0.11595,12.66087 -0.0248,6.83414 -0.0563,7.56048 -0.38632,8.90764 -0.63033,2.57282 -0.72776,4.06511 -0.72136,11.04862 0.005,5.26361 0.0587,6.9169 0.23589,7.23635 l 0.22963,0.41405 0.7904,-0.90355 0.79041,-0.90355 1.13447,0.0698 c 0.62397,0.0384 1.35626,0.15882 1.62733,0.26761 0.27107,0.1088 0.67366,0.24319 0.89465,0.29865 0.22099,0.0555 0.54047,0.33559 0.70994,0.62249 0.16948,0.2869 0.54079,0.69364 0.82514,0.90387 0.39074,0.28888 0.517,0.52491 0.517,0.96642 v 0.58419 h 0.89071 0.890702 z m -5.668292,-8.70434 c -0.0516,-0.0836 -0.013,-0.30311 0.0859,-0.48791 0.10436,-0.195 0.13446,-0.82167 0.0717,-1.49348 l -0.10809,-1.1575 0.85956,-1.06188 c 0.47276,-0.58404 0.91112,-1.00502 0.97413,-0.93551 0.063,0.0695 0.0506,0.68201 -0.0276,1.3611 -0.0782,0.6791 -0.19426,1.84482 -0.25795,2.59049 l -0.1158,1.35577 -0.69402,-0.01 c -0.38171,-0.005 -0.73627,-0.0779 -0.78791,-0.1615 z m 32.006432,7.7342 c 0.79213,-2.09519 0.70839,-4.72843 -0.17582,-5.52863 -0.18401,-0.16653 -0.33457,-0.40803 -0.33457,-0.53667 0,-0.12863 -0.20283,-0.28479 -0.45074,-0.34701 -0.33206,-0.0833 -0.56427,-0.006 -0.88194,0.29197 -0.23717,0.2228 -0.43121,0.5037 -0.43121,0.62422 0,0.12052 -0.21143,0.37314 -0.46983,0.56137 l -0.46984,0.34226 0.48326,1.21586 c 0.5437,1.36795 1.64976,3.44182 1.94053,3.63851 0.34888,0.23601 0.63817,0.14013 0.79016,-0.26188 z m -21.73365,-6.15011 c 1.93609,-1.26141 2.71405,-2.45941 3.13657,-4.8301 0.22775,-1.27784 0.12048,-1.85208 -0.34595,-1.85208 -0.1387,0 -0.34329,-0.17026 -0.45466,-0.37835 -0.30377,-0.56761 -1.08561,-1.19728 -1.49444,-1.20358 -0.49278,-0.008 -0.78493,-0.33793 -0.78493,-0.88752 0,-0.968 -0.7912,-1.14952 -1.85722,-0.42609 -0.41776,0.28349 -0.82813,0.42594 -1.08539,0.37677 -0.35977,-0.0688 -0.4791,0.0614 -0.91599,0.99936 -0.72313,1.5525 -0.96862,2.61934 -0.84791,3.68475 0.1459,1.28776 1.11528,4.18258 1.55864,4.65451 0.32394,0.34482 0.59965,0.43439 1.72446,0.56025 0.13876,0.0155 0.75383,-0.29854 1.36682,-0.69792 z m 4.33356,-10.87142 c 0.45327,-0.46082 0.93658,-1.15535 1.07403,-1.5434 0.13745,-0.38806 0.49783,-1.21572 0.80084,-1.83925 0.30302,-0.62353 0.55094,-1.22103 0.55094,-1.32779 0,-0.10675 0.3175,-0.81494 0.70555,-1.57374 0.38806,-0.7588 0.70556,-1.41145 0.70556,-1.45033 0,-0.0389 -0.1815,-0.0707 -0.40332,-0.0707 -0.2764,0 -0.60238,-0.26663 -1.03589,-0.8473 -0.45887,-0.61463 -0.82599,-0.90525 -1.33694,-1.05833 -1.08838,-0.32609 -1.63357,-0.27796 -1.63357,0.14422 0,0.56767 -0.68339,1.45581 -1.61371,2.0972 -1.03301,0.71219 -1.16998,1.12803 -0.70897,2.15249 0.91053,2.0234 0.97972,2.3664 0.66897,3.31644 -0.41772,1.27711 -0.37148,1.89455 0.18016,2.40579 0.67984,0.63005 1.11218,0.54442 2.04635,-0.4053 z m 7.9333,-9.63373 c 0.31858,-0.31858 0.39014,-2.50813 0.12389,-3.79065 -0.4289,-2.06601 -1.90424,-4.25861 -2.8655,-4.25861 -0.99315,0 -2.10192,0.71803 -2.45138,1.5875 -1.1383,2.83212 -0.69332,5.40669 1.08989,6.30591 0.63661,0.32103 1.08087,0.39687 2.32455,0.39687 1.0647,0 1.61165,-0.0741 1.77855,-0.24102 z m -8.85888,-6.70768 c 0,-0.96336 2.66659,-2.88717 5.07404,-3.66066 1.84359,-0.59232 2.68707,-0.9957 2.68707,-1.28503 0,-0.14589 -0.30385,-1.00199 -0.67522,-1.90245 -0.71158,-1.72535 -1.33494,-4.0698 -2.05334,-7.7226 -0.41365,-2.10333 -0.6123,-2.86463 -1.58787,-6.08542 -1.19518,-3.94584 -2.10797,-9.36305 -1.66716,-9.8942 0.23543,-0.28368 0.16564,-0.69088 -0.32975,-1.92385 -0.47771,-1.18896 -0.74143,-2.39013 -0.74603,-3.39802 -0.002,-0.45943 -0.16085,-1.54567 -0.35278,-2.41388 -0.23717,-1.07286 -0.34896,-2.23558 -0.34896,-3.62944 0,-2.41694 -0.26543,-5.44352 -0.61837,-7.05103 -0.2207,-1.00519 -1.03717,-3.47606 -1.48629,-4.49791 -0.0853,-0.19403 -0.32903,-0.94809 -0.54167,-1.6757 -0.21265,-0.7276 -0.44907,-1.52135 -0.52539,-1.76388 -0.0763,-0.24254 -0.23654,-0.79816 -0.35606,-1.23473 -0.11951,-0.43656 -0.28131,-0.99218 -0.35955,-1.23472 -0.0782,-0.24253 -0.31295,-0.99146 -0.5216,-1.66428 -0.35772,-1.15355 -1.0543,-2.50148 -0.82628,-1.59891 0.44994,1.78099 0.50216,2.22142 0.29321,2.47318 -0.11906,0.14347 -0.32129,0.26084 -0.44941,0.26084 -0.12811,0 -0.71433,0.4457 -1.30271,0.99044 -0.86172,0.79779 -1.15777,0.97362 -1.52211,0.90397 -0.646432,-0.12358 -0.811532,0.42386 -0.884012,2.93128 -0.0351,1.21336 -0.14472,2.19316 -0.26111,2.33341 -0.14968,0.18035 -0.14994,0.45551 -0.001,1.08334 0.10978,0.46288 0.18035,1.64623 0.15682,2.62967 -0.0353,1.47468 0.018,1.91487 0.30395,2.51152 0.398502,0.83142 0.523772,0.87123 1.084332,0.34461 0.22415,-0.21058 0.43181,-0.34948 0.46147,-0.30868 0.11955,0.1645 0.65303,2.06446 0.65303,2.32575 0,0.15414 -0.83344,1.05529 -1.85209,2.00253 -1.918052,1.78362 -2.159402,2.21391 -1.543402,2.7517 0.16978,0.14821 0.74524,0.36982 1.27882,0.49246 1.037532,0.23846 2.401912,0.8633 3.263202,1.49442 0.29104,0.21327 0.80698,0.49254 1.14652,0.62061 0.33955,0.12807 0.69277,0.2995 0.78493,0.38097 0.45317,0.40056 1.19113,-0.0983 0.76935,-0.5201 -0.10012,-0.10013 -0.20657,-0.54588 -0.23655,-0.99057 -0.03,-0.44469 -0.10685,-1.04684 -0.17082,-1.33811 -0.16547,-0.75338 -1.24128,-2.91765 -2.01818,-4.0601 -0.36339,-0.53436 -0.76126,-1.27625 -0.88416,-1.64865 -0.1229,-0.37239 -0.33334,-0.88768 -0.46765,-1.14509 -0.13431,-0.25741 -0.24392,-0.54739 -0.24357,-0.6444 8e-4,-0.22715 2.38002,-2.38125 2.6301,-2.38125 0.11025,0 0.18932,0.3782 0.18932,0.90557 0,0.49807 0.0743,1.1926 0.16511,1.54341 0.75046,2.89911 1.03304,3.79617 1.53891,4.88531 0.31903,0.68688 0.74724,1.9172 0.95157,2.73403 0.77318,3.09073 1.09658,4.32448 1.27353,4.85841 0.30505,0.92044 0.11385,1.11593 -0.98097,1.00293 -0.91329,-0.0943 -0.97719,-0.0727 -1.55343,0.52488 -0.69864,0.72447 -1.55869,1.78058 -1.98649,2.43935 -0.28826,0.4439 -0.28192,0.49633 0.16852,1.39314 l 0.46806,0.93189 -0.11196,5.04505 c -0.0616,2.77478 -0.18412,5.60068 -0.27233,6.27978 -0.16224,1.24915 -0.2543,1.72539 -0.88646,4.58611 -0.98031,4.43618 -1.10685,5.27593 -1.02264,6.78646 0.10404,1.86618 0.71052,3.35252 1.58565,3.8861 0.31611,0.19273 0.69598,0.35072 0.84417,0.35108 0.14819,3.6e-4 0.46569,0.13957 0.70556,0.30934 0.47116,0.33349 2.3587,1.04671 2.86147,1.08124 0.21393,0.0147 0.30868,-0.10843 0.30868,-0.40112 z M 93.543398,144.43959 c 0.23216,-0.78075 0.48777,-1.46012 0.56803,-1.50972 0.0803,-0.0496 0.14592,-0.23195 0.14592,-0.40521 0,-0.17327 0.15875,-0.4587 0.35277,-0.63429 0.19403,-0.1756 0.35278,-0.42602 0.35278,-0.55651 0,-0.13371 0.18724,-0.23724 0.42909,-0.23724 0.25476,0 0.46779,-0.12541 0.52436,-0.30868 0.30575,-0.99053 0.80945,-4.1771 0.80991,-5.1237 4.7e-4,-0.98096 -0.0552,-1.16253 -0.47627,-1.55274 -0.36833,-0.34135 -0.50149,-0.66615 -0.5853,-1.42759 -0.0922,-0.83785 -0.0632,-0.99754 0.19331,-1.06462 0.27528,-0.072 1.1696,-1.7959 1.48882,-2.8699 0.12346,-0.41537 0.3869,-6.93022 0.50389,-12.46112 0.0318,-1.50355 0.14238,-2.71151 0.27826,-3.03954 0.12402,-0.29942 0.18604,-0.64721 0.13782,-0.77287 -0.0482,-0.12567 -0.55336,-0.44968 -1.12252,-0.72003 -0.56916,-0.27036 -1.323,-0.64212 -1.67519,-0.82614 -0.60297,-0.31506 -0.65533,-0.31697 -0.89699,-0.0328 -0.88115,1.03619 -1.44938,4.64819 -1.33819,8.50628 0.0775,2.68778 0.0629,2.8549 -0.2696,3.08777 -0.65418,0.45821 -0.8931,6.31926 -0.55799,13.68867 0.0797,1.75233 0.0622,2.7949 -0.0479,2.86297 -0.2692,0.16637 -0.23366,2.68128 0.0535,3.78363 0.14187,0.54469 0.25795,1.32437 0.25795,1.73261 0,0.77986 0.13319,1.30029 0.33279,1.30029 0.0653,0 0.3086,-0.63879 0.54076,-1.41953 z m 9.034582,-4.38244 c 0.32285,-0.37769 0.86482,-1.21496 1.20437,-1.86061 0.60213,-1.14496 0.60891,-1.18023 0.27497,-1.42997 -0.18832,-0.14084 -0.63825,-0.25606 -0.99986,-0.25606 -0.65139,0 -0.66071,0.0102 -1.00907,1.10243 -0.19339,0.60633 -0.399,1.55883 -0.4569,2.11666 -0.12982,1.25064 0.12505,1.33527 0.98649,0.32755 z m -2.46068,-3.62698 0.52724,-1.75602 -0.40007,-0.32395 c -0.522352,-0.42298 -0.921852,-0.33139 -0.959662,0.22003 -0.0166,0.24253 -0.0827,1.43316 -0.14679,2.64583 -0.11203,2.11963 -0.10555,2.181 0.16775,1.5875 0.15636,-0.33955 0.52155,-1.40757 0.811532,-2.37339 z m 16.99981,-18.74918 c -5.3e-4,-1.13991 0.10184,-2.5999 0.22766,-3.24442 0.36779,-1.88396 -0.0201,-5.89333 -0.91914,-9.49967 -0.13301,-0.53358 -0.42257,-1.76389 -0.64347,-2.73403 -0.88869,-3.902992 -1.88099,-6.584582 -2.49609,-6.745432 -0.34286,-0.0897 -0.91677,-0.90669 -1.4253,-2.0291 -0.28241,-0.623308 -0.34691,-0.662278 -1.09623,-0.662278 -1.24926,0 -1.29453,0.22463 -0.69316,3.439588 0.14518,0.77611 0.41074,1.92705 0.59014,2.55764 0.17941,0.63059 0.4896,1.984832 0.68932,3.009432 0.36989,1.89757 2.11596,8.19807 2.92243,10.54531 0.25627,0.74586 0.44519,1.69109 0.44519,2.22742 0,1.1044 0.30304,1.90405 1.03916,2.74212 0.29658,0.33765 0.6712,1.03063 0.83251,1.53995 0.16131,0.50932 0.34612,0.92604 0.41069,0.92604 0.0646,0 0.1169,-0.93265 0.11629,-2.07257 z m -24.604922,-5.81603 c 0.18301,-1.87428 0.17416,-2.07004 -0.10277,-2.27253 -0.16667,-0.12187 -0.42585,-0.17445 -0.57596,-0.11685 -0.23408,0.0898 -0.25641,0.39562 -0.15691,2.14865 0.0638,1.12415 0.16692,2.27795 0.22913,2.56399 0.10867,0.49963 0.11888,0.5045 0.25968,0.12388 0.0806,-0.21791 0.23668,-1.31912 0.34683,-2.44714 z m 8.528502,-1.70093 c 0.47283,-0.47283 0.72192,-1.86329 0.58641,-3.27353 -0.1032,-1.07402 -1.20675,-3.24248 -2.361112,-4.63955 -0.89104,-1.07838 -3.30695,-2.841032 -4.15061,-3.028292 -0.51764,-0.11489 -0.72381,0.0649 -0.97767,0.852522 -0.25428,0.78896 -0.55012,0.74115 -0.9324,-0.150682 -0.28049,-0.65435 -0.43114,-0.80844 -0.79042,-0.80844 -0.53688,0 -0.73806,0.56685 -0.46038,1.297192 0.24359,0.64069 0.2371,2.04851 -0.014,3.04588 -0.14347,0.56975 -0.14618,0.84916 -0.01,0.98578 0.10486,0.10486 0.14606,0.41366 0.0915,0.68622 -0.0657,0.32848 -0.003,0.59168 0.18594,0.78063 0.15678,0.15678 0.28506,0.47782 0.28506,0.71343 0,0.30805 0.0972,0.42837 0.34616,0.42837 0.68986,0 2.29016,0.73758 4.25868,1.96283 2.8429,1.76949 3.212852,1.87718 3.942392,1.14764 z m 0.87537,-10.382222 c -0.0301,-0.22064 -0.17001,-1.08224 -0.31078,-1.91467 -0.17231,-1.01897 -0.20677,-1.76823 -0.10545,-2.29305 0.22547,-1.16797 0.1912,-3.541398 -0.0582,-4.034318 -0.14482,-0.28616 -0.50445,-0.52122 -1.06265,-0.69457 l -0.843742,-0.26203 -1.87002,0.95916 c -1.99767,1.02462 -2.1778,1.22554 -2.44132,2.723038 -0.0683,0.38806 -0.23432,0.88136 -0.36895,1.09623 -0.13463,0.21486 -0.24479,0.51091 -0.24479,0.65787 0,0.3355 0.93181,0.81556 2.71092,1.39664 0.75981,0.24816 1.75053,0.6874 2.2016,0.9761 0.45107,0.28869 1.029362,0.60395 1.285092,0.70056 0.25574,0.0966 0.57023,0.41347 0.69889,0.70412 0.26439,0.597302 0.49199,0.588922 0.40944,-0.0151 z m 21.52645,-1.03997 c 0.94581,-0.14067 1.33012,-0.27093 1.33012,-0.45086 0,-0.31572 -0.99547,-2.34036 -1.33568,-2.71658 -0.1385,-0.15316 -0.25182,-0.34093 -0.25182,-0.41725 0,-0.18141 -1.5628,-2.531388 -1.76763,-2.657978 -0.0867,-0.0536 -0.28097,0.14111 -0.43173,0.43265 -0.15076,0.291528 -0.46221,0.807238 -0.6921,1.146008 -0.2299,0.33876 -0.4712,0.97075 -0.53623,1.40442 -0.065,0.43366 -0.26562,1.20697 -0.44575,1.71847 -0.29513,0.83805 -0.30028,0.9499 -0.0522,1.13133 0.15143,0.11073 0.21884,0.29275 0.14979,0.40448 -0.16696,0.27014 2.23137,0.2733 4.0332,0.005 z m -5.58483,-2.84586 c 0.1011,-0.12181 0.23428,-0.42256 0.29596,-0.66833 0.0943,-0.37582 -0.0577,-0.62532 -0.95596,-1.56936 -0.58746,-0.617378 -1.06811,-1.189078 -1.06811,-1.270458 0,-0.0814 0.15875,-0.24708 0.35278,-0.36826 0.55789,-0.3484 0.42538,-0.7968 -0.35278,-1.19378 -0.38805,-0.19798 -0.70555,-0.46437 -0.70555,-0.592002 0,-0.12763 0.28957,-0.603733 0.6435,-1.058011 0.35392,-0.454277 0.61189,-0.848513 0.57326,-0.876083 -0.47769,-0.340917 -1.0738,-0.648908 -1.25594,-0.648908 -0.12539,0 -0.43181,-0.337344 -0.68094,-0.749653 -0.25338,-0.419343 -0.74497,-0.905092 -1.11569,-1.10243 -0.3645,-0.194028 -1.0729,-0.73176 -1.57422,-1.194959 -1.00624,-0.929712 -3.37557,-2.421013 -3.84643,-2.421013 -0.18637,0 -0.34194,0.189861 -0.41019,0.500641 -0.0605,0.275353 -0.42173,0.969884 -0.80278,1.543402 -0.38105,0.57352 -0.69507,1.101297 -0.69781,1.172842 -0.003,0.07154 0.31251,0.330507 0.70057,0.575476 0.38806,0.244968 0.70556,0.553374 0.70556,0.685346 0,0.131971 0.15219,0.587382 0.3382,1.012023 0.18601,0.424642 0.3929,1.145429 0.45977,1.60175 l 0.12157,0.829677 1.35375,-0.02886 c 1.18785,-0.02533 1.49356,0.03859 2.49474,0.521552 0.89942,0.43388 1.33975,0.7985 2.07978,1.72218 0.51634,0.64447 1.32993,1.452768 1.80799,1.796218 0.78641,0.56499 0.8692,0.69008 0.8692,1.31347 0,0.71095 0.29617,0.91769 0.66977,0.46753 z M 92.218158,92.33503 c 0.11581,-0.77224 0.32766,-0.98008 0.99902,-0.98008 0.18816,0 0.79682,-0.4481 1.35259,-0.99579 1.22992,-1.212028 1.67704,-1.321356 4.78662,-1.170388 l 2.188632,0.106258 -0.1134,-0.827327 c -0.074,-0.539844 -0.0246,-1.085134 0.14222,-1.56926 0.14059,-0.408063 0.19892,-0.797586 0.12963,-0.865603 -0.0693,-0.06802 -0.48046,-0.148527 -0.91371,-0.178905 -0.71181,-0.04991 -0.850752,-0.138805 -1.441802,-0.922459 -0.35974,-0.476975 -1.22902,-1.896445 -1.93173,-3.154378 -1.04585,-1.87219 -1.31965,-2.528658 -1.50913,-3.618288 -0.12731,-0.732125 -0.29262,-1.389587 -0.36735,-1.461022 -0.0747,-0.07144 -0.77088,-0.07702 -1.54699,-0.0124 l -1.41111,0.117483 -0.11325,1.763889 c -0.0623,0.970139 -0.27308,2.478264 -0.46843,3.351389 -0.19535,0.873125 -0.4118,2.2225 -0.48101,2.998611 -0.11705,1.312785 -0.12997,5.321246 -0.021,6.52639 0.0263,0.29104 0.0626,0.87623 0.0807,1.30042 0.0272,0.636868 0.0756,0.735758 0.27829,0.567578 0.13497,-0.11202 0.29753,-0.551268 0.36124,-0.976118 z m 11.986862,-8.36826 c 0.5059,-0.812687 0.58007,-1.012199 1.08946,-2.930567 0.41466,-1.561612 0.54773,-3.168855 0.29316,-3.540644 -0.0713,-0.10409 -0.26492,-0.239128 -0.43031,-0.300087 -0.36451,-0.134348 -0.97585,-1.288588 -1.16407,-2.197849 l -0.13749,-0.664198 -1.31553,-0.04873 c -1.91382,-0.07089 -3.073162,0.372423 -3.829082,1.464164 -0.48417,0.69928 -0.57236,0.982564 -0.5675,1.822919 0.003,0.547238 0.16586,1.431539 0.36155,1.965115 0.19568,0.533577 0.4273,1.247952 0.5147,1.5875 0.0874,0.339549 0.30374,0.736424 0.48075,0.881945 0.17701,0.14552 0.554822,0.571789 0.839582,0.947263 0.81823,1.078903 2.36801,1.932567 3.14633,1.733095 0.17688,-0.04533 0.50017,-0.369299 0.71845,-0.71993 z m 12.87562,0.482718 c 0.2369,-0.338218 0.23597,-0.436209 -0.009,-0.909136 -0.48835,-0.94436 -1.24013,-1.873492 -1.99031,-2.459853 -0.40353,-0.315404 -1.24151,-1.018857 -1.86218,-1.563227 -1.41054,-1.237139 -1.98389,-1.523218 -4.08583,-2.038697 -0.52481,-0.128704 -0.71263,0.297483 -0.7898,1.792139 l -0.0637,1.233122 0.91375,0.113127 c 0.8006,0.09912 1.52412,0.451813 2.29551,1.11899 0.11586,0.100207 0.73173,0.498945 1.3686,0.886085 0.63686,0.387138 1.20293,0.845659 1.25793,1.018935 0.12614,0.39745 0.79523,0.841075 1.53286,1.016328 0.93356,0.221804 1.15313,0.189934 1.43172,-0.207813 z m 1.1656,-5.057572 c 0,-0.176752 -0.37703,-0.877676 -0.83785,-1.557607 -0.46081,-0.679932 -1.01862,-1.590197 -1.23957,-2.022812 -0.452,-0.885019 -0.9816,-1.501699 -1.87458,-2.182813 -0.33479,-0.255356 -0.94672,-0.915629 -1.35985,-1.467273 -0.41312,-0.551642 -1.23243,-1.550605 -1.82068,-2.219916 -2.71671,-3.091056 -3.75191,-3.713494 -6.09664,-3.665731 -1.9586,0.0399 -3.01532,0.314882 -5.556252,1.445886 -2.75505,1.226312 -5.79135,2.417254 -6.54735,2.5681 l -0.55013,0.109767 0.086,1.614175 c 0.0473,0.887797 0.14329,1.676931 0.21333,1.753632 0.1297,0.142016 2.73013,-0.392273 4.32873,-0.88939 1.1171,-0.347382 6.279732,-0.491793 6.851802,-0.19166 0.34876,0.182972 1.82276,1.340555 2.37713,1.866843 0.12819,0.121705 0.42471,0.22128 0.65892,0.22128 0.23422,0 0.76433,0.07487 1.17803,0.166365 0.4137,0.0915 1.1884,0.262583 1.72156,0.380185 0.53316,0.1176 2.0016,0.637067 3.2632,1.154368 1.2616,0.517301 2.37548,0.941531 2.4753,0.942732 0.0998,0.0012 0.69283,0.518121 1.31782,1.148711 0.62498,0.630591 1.19816,1.146528 1.27372,1.146528 0.0756,0 0.13739,-0.144616 0.13739,-0.32137 z m 5.81058,-11.901055 c 0.17466,-0.623798 0.16635,-0.999037 -0.0447,-2.018584 -0.14257,-0.688792 -0.31037,-1.33514 -0.37291,-1.436329 -0.0625,-0.101191 -0.14933,-1.119717 -0.19285,-2.263391 -0.0435,-1.143675 -0.19938,-2.53922 -0.34633,-3.101209 -0.25768,-0.985497 -1.42546,-2.926853 -2.46233,-4.093478 -0.25867,-0.291042 -0.8929,-1.164167 -1.4094,-1.940278 -1.10626,-1.662302 -2.7968,-3.146953 -5.8508,-5.138223 -2.89931,-1.890409 -3.71415,-2.232529 -5.53825,-2.325293 -1.3118,-0.06671 -1.69784,-0.170082 -3.0868,-0.826556 -0.87313,-0.41267 -1.9975,-0.80166 -2.49862,-0.864422 -0.86335,-0.108131 -0.93039,-0.08704 -1.27882,0.402281 -0.4156,0.583655 -0.47342,1.365504 -0.14722,1.990773 0.42492,0.814501 3.31819,3.498506 4.33529,4.021731 0.55026,0.283069 1.31798,0.813793 1.70604,1.179386 8.55392,8.058775 11.32767,10.947806 14.19932,14.789489 1.21354,1.623463 1.82492,2.269543 2.29304,2.42319 0.38783,0.127297 0.45876,0.04578 0.6953,-0.799087 z M 95.756648,66.324084 c 1.3951,-0.939105 1.78715,-1.107802 3.52778,-1.517989 1.540082,-0.362925 3.041082,-1.075029 3.178482,-1.507933 0.22556,-0.710667 -0.66579,-1.400154 -1.81008,-1.400154 -0.975462,0 -4.080282,0.762879 -4.984372,1.224698 -0.53358,0.272557 -1.44639,0.741721 -2.02848,1.042589 -0.58208,0.300867 -1.27661,0.54881 -1.5434,0.550983 -0.26679,0.0022 -0.48507,0.09839 -0.48507,0.21382 0,0.373258 0.38838,2.336197 0.54124,2.735517 l 0.14843,0.387745 1.11038,-0.449063 c 0.6107,-0.246984 1.66599,-0.82308 2.34509,-1.280213 z m -2.3202,-4.872153 c 1.54209,-0.457471 3.6999,-1.698295 3.82836,-2.20146 0.13379,-0.524044 -0.0962,-1.056629 -0.45623,-1.056629 -0.14221,0 -0.56132,-0.311967 -0.93135,-0.693258 -0.4203,-0.433084 -1.11693,-0.871059 -1.85625,-1.167029 -0.6509,-0.260574 -1.28072,-0.607441 -1.39959,-0.770815 -0.27127,-0.372822 -1.02369,-0.896676 -1.28791,-0.896676 -0.14116,0 -0.20273,0.992433 -0.21046,3.392308 -0.006,1.865769 0.0268,3.453269 0.0728,3.527777 0.13722,0.222021 1.26814,0.154277 2.24062,-0.134218 z"
       id="path60" />
  </g>
</svg>
